<svg class="main-svg" xmlns="http://www.w3.org/2000/svg" xmlns:xlink="http://www.w3.org/1999/xlink" width="1300" height="1000" style="" viewBox="0 0 1300 1000"><rect x="0" y="0" width="1300" height="1000" style="fill: rgb(255, 255, 255); fill-opacity: 1;"/><defs id="defs-c0fb28"><g class="clips"><clipPath id="clipc0fb28polar-for-traces"><path d="M410,0A410,410 0,1,0 -410,-5.021051876504148e-14A410,410 0,1,0 410,1.0042103753008296e-13Z" transform="translate(410,410)"/></clipPath></g><g class="gradients"/><g class="patterns"/></defs><g class="bglayer"/><g class="layer-below"><g class="imagelayer"/><g class="shapelayer"/></g><g class="cartesianlayer"/><g class="polarlayer"><g class="polar"><g class="polarsublayer draglayer"/><g class="polarsublayer plotbg"><path d="M410,0A410,410 0,1,0 -410,-5.021051876504148e-14A410,410 0,1,0 410,1.0042103753008296e-13Z" transform="translate(623,510)" style="fill: rgb(229, 236, 246); fill-opacity: 1;"/></g><g class="polarsublayer backplot"><g class="maplayer"/></g><g class="polarsublayer angular-grid" style="fill: none;"><path class="angularaxisgrid" d="M623,510L1033,510" style="stroke: rgb(255, 255, 255); stroke-opacity: 1; stroke-width: 1px;"/><path class="angularaxisgrid" d="M623,510L1019.029588778518,403.8841915079665" style="stroke: rgb(255, 255, 255); stroke-opacity: 1; stroke-width: 1px;"/><path class="angularaxisgrid" d="M623,510L978.0704155516198,305" style="stroke: rgb(255, 255, 255); stroke-opacity: 1; stroke-width: 1px;"/><path class="angularaxisgrid" d="M623,510L912.9137802864846,220.08621971351556" style="stroke: rgb(255, 255, 255); stroke-opacity: 1; stroke-width: 1px;"/><path class="angularaxisgrid" d="M623,510L828,154.92958444838018" style="stroke: rgb(255, 255, 255); stroke-opacity: 1; stroke-width: 1px;"/><path class="angularaxisgrid" d="M623,510L729.1158084920335,113.97041122148198" style="stroke: rgb(255, 255, 255); stroke-opacity: 1; stroke-width: 1px;"/><path class="angularaxisgrid" d="M623,510L623,100" style="stroke: rgb(255, 255, 255); stroke-opacity: 1; stroke-width: 1px;"/><path class="angularaxisgrid" d="M623,510L516.8841915079665,113.97041122148198" style="stroke: rgb(255, 255, 255); stroke-opacity: 1; stroke-width: 1px;"/><path class="angularaxisgrid" d="M623,510L418.0000000000001,154.92958444838013" style="stroke: rgb(255, 255, 255); stroke-opacity: 1; stroke-width: 1px;"/><path class="angularaxisgrid" d="M623,510L333.08621971351556,220.0862197135155" style="stroke: rgb(255, 255, 255); stroke-opacity: 1; stroke-width: 1px;"/><path class="angularaxisgrid" d="M623,510L267.9295844483801,305" style="stroke: rgb(255, 255, 255); stroke-opacity: 1; stroke-width: 1px;"/><path class="angularaxisgrid" d="M623,510L226.97041122148204,403.88419150796636" style="stroke: rgb(255, 255, 255); stroke-opacity: 1; stroke-width: 1px;"/><path class="angularaxisgrid" d="M623,510L213,509.99999999999994" style="stroke: rgb(255, 255, 255); stroke-opacity: 1; stroke-width: 1px;"/><path class="angularaxisgrid" d="M623,510L226.97041122148198,616.1158084920335" style="stroke: rgb(255, 255, 255); stroke-opacity: 1; stroke-width: 1px;"/><path class="angularaxisgrid" d="M623,510L267.92958444838007,714.9999999999999" style="stroke: rgb(255, 255, 255); stroke-opacity: 1; stroke-width: 1px;"/><path class="angularaxisgrid" d="M623,510L333.08621971351533,799.9137802864843" style="stroke: rgb(255, 255, 255); stroke-opacity: 1; stroke-width: 1px;"/><path class="angularaxisgrid" d="M623,510L417.99999999999983,865.0704155516198" style="stroke: rgb(255, 255, 255); stroke-opacity: 1; stroke-width: 1px;"/><path class="angularaxisgrid" d="M623,510L516.8841915079665,906.029588778518" style="stroke: rgb(255, 255, 255); stroke-opacity: 1; stroke-width: 1px;"/><path class="angularaxisgrid" d="M623,510L622.9999999999999,920" style="stroke: rgb(255, 255, 255); stroke-opacity: 1; stroke-width: 1px;"/><path class="angularaxisgrid" d="M623,510L729.1158084920334,906.029588778518" style="stroke: rgb(255, 255, 255); stroke-opacity: 1; stroke-width: 1px;"/><path class="angularaxisgrid" d="M623,510L828,865.0704155516198" style="stroke: rgb(255, 255, 255); stroke-opacity: 1; stroke-width: 1px;"/><path class="angularaxisgrid" d="M623,510L912.9137802864844,799.9137802864846" style="stroke: rgb(255, 255, 255); stroke-opacity: 1; stroke-width: 1px;"/><path class="angularaxisgrid" d="M623,510L978.0704155516198,715.0000000000002" style="stroke: rgb(255, 255, 255); stroke-opacity: 1; stroke-width: 1px;"/><path class="angularaxisgrid" d="M623,510L1019.0295887785179,616.1158084920338" style="stroke: rgb(255, 255, 255); stroke-opacity: 1; stroke-width: 1px;"/></g><g class="polarsublayer radial-grid" transform="translate(623,510)" style="fill: none;"><path class="xgrid" d="M41,0A41,41 0,1,0 -41,-5.021051876504148e-15A41,41 0,1,0 41,1.0042103753008296e-14Z" style="stroke: rgb(255, 255, 255); stroke-opacity: 1; stroke-width: 1px;"/><path class="xgrid" d="M82,0A82,82 0,1,0 -82,-1.0042103753008296e-14A82,82 0,1,0 82,2.0084207506016593e-14Z" style="stroke: rgb(255, 255, 255); stroke-opacity: 1; stroke-width: 1px;"/><path class="xgrid" d="M123,0A123,123 0,1,0 -123,-1.5063155629512445e-14A123,123 0,1,0 123,3.012631125902489e-14Z" style="stroke: rgb(255, 255, 255); stroke-opacity: 1; stroke-width: 1px;"/><path class="xgrid" d="M164,0A164,164 0,1,0 -164,-2.0084207506016593e-14A164,164 0,1,0 164,4.0168415012033185e-14Z" style="stroke: rgb(255, 255, 255); stroke-opacity: 1; stroke-width: 1px;"/><path class="xgrid" d="M205,0A205,205 0,1,0 -205,-2.510525938252074e-14A205,205 0,1,0 205,5.021051876504148e-14Z" style="stroke: rgb(255, 255, 255); stroke-opacity: 1; stroke-width: 1px;"/><path class="xgrid" d="M246,0A246,246 0,1,0 -246,-3.012631125902489e-14A246,246 0,1,0 246,6.025262251804978e-14Z" style="stroke: rgb(255, 255, 255); stroke-opacity: 1; stroke-width: 1px;"/><path class="xgrid" d="M287,0A287,287 0,1,0 -287,-3.514736313552904e-14A287,287 0,1,0 287,7.029472627105808e-14Z" style="stroke: rgb(255, 255, 255); stroke-opacity: 1; stroke-width: 1px;"/><path class="xgrid" d="M328,0A328,328 0,1,0 -328,-4.0168415012033185e-14A328,328 0,1,0 328,8.033683002406637e-14Z" style="stroke: rgb(255, 255, 255); stroke-opacity: 1; stroke-width: 1px;"/><path class="xgrid" d="M369,0A369,369 0,1,0 -369,-4.518946688853733e-14A369,369 0,1,0 369,9.037893377707467e-14Z" style="stroke: rgb(255, 255, 255); stroke-opacity: 1; stroke-width: 1px;"/></g><g class="polarsublayer frontplot" transform="translate(213,100)" clip-path="url(#clipc0fb28polar-for-traces)"><g class="barlayer"/><g class="scatterlayer"><g class="trace scatter traced0470d" style="stroke-miterlimit: 2; opacity: 1;"><g class="fills"><g><path class="js-fill" d="M509.04,410L729.02,324.52L607.34,296.06L533.49,286.51L475.93,295.8L456.53,236.33L410,189.08L370.9,264.09L300.31,220L120.09,120.09L410,410L410,410L410,410L277.99,445.37L410,410L410,410L410,410L410,410L410,410L516.12,806.03L410,410L410,410L410,410L410,410Z" style="fill: rgb(99, 110, 250); fill-opacity: 0.5; stroke-width: 0;"/></g></g><g class="errorbars"/><g class="lines"><path class="js-line" d="M509.04,410L729.02,324.52L607.34,296.06L533.49,286.51L475.93,295.8L456.53,236.33L410,189.08L370.9,264.09L300.31,220L120.09,120.09L410,410L410,410L410,410L277.99,445.37L410,410L410,410L410,410L410,410L410,410L516.12,806.03L410,410L410,410L410,410L410,410" style="vector-effect: none; fill: none; stroke: rgb(99, 110, 250); stroke-opacity: 1; stroke-width: 2px; opacity: 1;"/></g><g class="points"/><g class="text"/></g><g class="trace scatter tracef281b7" style="stroke-miterlimit: 2; opacity: 1;"><g class="fills"><g><path class="js-fill" d="M520.56,410L707.02,330.41L697.56,243.98L528.19,291.81L487.19,276.31L469.26,188.84L410,160.22L374.06,275.88L249.02,131.17L120.09,120.09L410,410L410,410L410,410L410,410L410,410L410,410L410,410L410,410L410,410L463.06,608.01L615,765.07L410,410L410,410L410,410Z" style="fill: rgb(239, 85, 59); fill-opacity: 0.5; stroke-width: 0;"/></g></g><g class="errorbars"/><g class="lines"><path class="js-line" d="M520.56,410L707.02,330.41L697.56,243.98L528.19,291.81L487.19,276.31L469.26,188.84L410,160.22L374.06,275.88L249.02,131.17L120.09,120.09L410,410L410,410L410,410L410,410L410,410L410,410L410,410L410,410L410,410L463.06,608.01L615,765.07L410,410L410,410L410,410" style="vector-effect: none; fill: none; stroke: rgb(239, 85, 59); stroke-opacity: 1; stroke-width: 2px; opacity: 1;"/></g><g class="points"/><g class="text"/></g><g class="trace scatter traceaae6f8" style="stroke-miterlimit: 2; opacity: 1;"><g class="fills"><g><path class="js-fill" d="M410,410L410,410L765.07,205L699.91,120.09L615,54.93L464.41,206.95L410,396.07L303.88,13.97L342.36,292.84L410,410L410,410L410,410L410,410L410,410L410,410L410,410L410,410L410,410L410,410L410,410L410,410L410,410L410,410L410,410Z" style="fill: rgb(0, 204, 150); fill-opacity: 0.5; stroke-width: 0;"/></g></g><g class="errorbars"/><g class="lines"><path class="js-line" d="M410,410L410,410L765.07,205L699.91,120.09L615,54.93L464.41,206.95L410,396.07L303.88,13.97L342.36,292.84L410,410L410,410L410,410L410,410L410,410L410,410L410,410L410,410L410,410L410,410L410,410L410,410L410,410L410,410L410,410" style="vector-effect: none; fill: none; stroke: rgb(0, 204, 150); stroke-opacity: 1; stroke-width: 2px; opacity: 1;"/></g><g class="points"/><g class="text"/></g><g class="trace scatter trace07ef5b" style="stroke-miterlimit: 2; opacity: 1;"><g class="fills"><g><path class="js-fill" d="M820,410L806.03,303.88L410,410L410,410L410,410L410,410L410,0L410,410L410,410L120.09,120.09L410,410L410,410L410,410L13.97,516.12L54.93,615L410,410L205,765.07L410,410L410,410L410,410L410,410L699.91,699.91L410,410L410,410Z" style="fill: rgb(171, 99, 250); fill-opacity: 0.5; stroke-width: 0;"/></g></g><g class="errorbars"/><g class="lines"><path class="js-line" d="M820,410L806.03,303.88L410,410L410,410L410,410L410,410L410,0L410,410L410,410L120.09,120.09L410,410L410,410L410,410L13.97,516.12L54.93,615L410,410L205,765.07L410,410L410,410L410,410L410,410L699.91,699.91L410,410L410,410" style="vector-effect: none; fill: none; stroke: rgb(171, 99, 250); stroke-opacity: 1; stroke-width: 2px; opacity: 1;"/></g><g class="points"/><g class="text"/></g><g class="trace scatter trace8e23b9" style="stroke-miterlimit: 2; opacity: 1;"><g class="fills"><g><path class="js-fill" d="M529.78,410L619.02,353.99L656.83,267.49L652.68,167.32L476.27,295.22L516.12,13.97L410,410L375.59,281.57L205,54.93L120.09,120.09L410,410L410,410L410,410L410,410L410,410L410,410L410,410L410,410L410,410L410,410L410,410L410,410L410,410L410,410Z" style="fill: rgb(255, 161, 90); fill-opacity: 0.5; stroke-width: 0;"/></g></g><g class="errorbars"/><g class="lines"><path class="js-line" d="M529.78,410L619.02,353.99L656.83,267.49L652.68,167.32L476.27,295.22L516.12,13.97L410,410L375.59,281.57L205,54.93L120.09,120.09L410,410L410,410L410,410L410,410L410,410L410,410L410,410L410,410L410,410L410,410L410,410L410,410L410,410L410,410" style="vector-effect: none; fill: none; stroke: rgb(255, 161, 90); stroke-opacity: 1; stroke-width: 2px; opacity: 1;"/></g><g class="points"/><g class="text"/></g></g></g><g class="polarsublayer angular-line"><path d="M410,0A410,410 0,1,0 -410,-5.021051876504148e-14A410,410 0,1,0 410,1.0042103753008296e-13Z" transform="translate(623,510)" stroke-width="1" style="fill: none; stroke: rgb(255, 255, 255); stroke-opacity: 1;"/></g><g class="polarsublayer radial-line"><line x1="0" y1="0" x2="410" y2="0" transform="translate(623,510)" stroke-width="1" style="fill: none; stroke: rgb(255, 255, 255); stroke-opacity: 1;"/></g><g class="polarsublayer angular-axis"><g class="angularaxistick"><text text-anchor="start" x="2.9000000000000004" y="4.199999999999999" transform="translate(1033,510)" style="font-family: 'Open Sans', verdana, arial, sans-serif; font-size: 12px; fill: rgb(42, 63, 95); fill-opacity: 1; white-space: pre; opacity: 1;">poverty_percent</text></g><g class="angularaxistick"><text text-anchor="start" x="2.8011848962382984" y="2.685147531370726" transform="translate(1019.029588778518,403.8841915079665)" style="font-family: 'Open Sans', verdana, arial, sans-serif; font-size: 12px; fill: rgb(42, 63, 95); fill-opacity: 1; white-space: pre; opacity: 1;">real_pay</text></g><g class="angularaxistick"><text text-anchor="start" x="2.5114736709748726" y="0.9873066958946422" transform="translate(978.0704155516198,305)" style="font-family: 'Open Sans', verdana, arial, sans-serif; font-size: 12px; fill: rgb(42, 63, 95); fill-opacity: 1; white-space: pre; opacity: 1;">retail</text></g><g class="angularaxistick"><text text-anchor="start" x="2.050609665440988" y="-0.7778174593052025" transform="translate(912.9137802864846,220.08621971351556)" style="font-family: 'Open Sans', verdana, arial, sans-serif; font-size: 12px; fill: rgb(42, 63, 95); fill-opacity: 1; white-space: pre; opacity: 1;">industrial_production</text></g><g class="angularaxistick"><text text-anchor="start" x="1.4500000000000004" y="-2.4899346400575255" transform="translate(828,154.92958444838018)" style="font-family: 'Open Sans', verdana, arial, sans-serif; font-size: 12px; fill: rgb(42, 63, 95); fill-opacity: 1; white-space: pre; opacity: 1;">manufacturing</text></g><g class="angularaxistick"><text text-anchor="start" x="0.7505752307973103" y="-4.032366889901476" transform="translate(729.1158084920335,113.97041122148198)" style="font-family: 'Open Sans', verdana, arial, sans-serif; font-size: 12px; fill: rgb(42, 63, 95); fill-opacity: 1; white-space: pre; opacity: 1;">grp</text></g><g class="angularaxistick"><text text-anchor="middle" x="1.7757378587636624e-16" y="-5.300000000000001" transform="translate(623,100)" style="font-family: 'Open Sans', verdana, arial, sans-serif; font-size: 12px; fill: rgb(42, 63, 95); fill-opacity: 1; white-space: pre; opacity: 1;">disabled_100k</text></g><g class="angularaxistick"><text text-anchor="end" x="-0.7505752307973099" y="-4.032366889901477" transform="translate(516.8841915079665,113.97041122148198)" style="font-family: 'Open Sans', verdana, arial, sans-serif; font-size: 12px; fill: rgb(42, 63, 95); fill-opacity: 1; white-space: pre; opacity: 1;">water_supply</text></g><g class="angularaxistick"><text text-anchor="end" x="-1.4499999999999995" y="-2.489934640057527" transform="translate(418.0000000000001,154.92958444838013)" style="font-family: 'Open Sans', verdana, arial, sans-serif; font-size: 12px; fill: rgb(42, 63, 95); fill-opacity: 1; white-space: pre; opacity: 1;">electricity</text></g><g class="angularaxistick"><text text-anchor="end" x="-2.0506096654409878" y="-0.7778174593052039" transform="translate(333.08621971351556,220.0862197135155)" style="font-family: 'Open Sans', verdana, arial, sans-serif; font-size: 12px; fill: rgb(42, 63, 95); fill-opacity: 1; white-space: pre; opacity: 1;">real_incomes_trend</text></g><g class="angularaxistick"><text text-anchor="end" x="-2.5114736709748726" y="0.9873066958946422" transform="translate(267.9295844483801,305)" style="font-family: 'Open Sans', verdana, arial, sans-serif; font-size: 12px; fill: rgb(42, 63, 95); fill-opacity: 1; white-space: pre; opacity: 1;">psychosis_trend</text></g><g class="angularaxistick"><text text-anchor="end" x="-2.801184896238298" y="2.685147531370725" transform="translate(226.97041122148204,403.88419150796636)" style="font-family: 'Open Sans', verdana, arial, sans-serif; font-size: 12px; fill: rgb(42, 63, 95); fill-opacity: 1; white-space: pre; opacity: 1;">industrial_production_trend</text></g><g class="angularaxistick"><text text-anchor="end" x="-2.9000000000000004" y="4.199999999999998" transform="translate(213,509.99999999999994)" style="font-family: 'Open Sans', verdana, arial, sans-serif; font-size: 12px; fill: rgb(42, 63, 95); fill-opacity: 1; white-space: pre; opacity: 1;">child_mortality_100k_trend</text></g><g class="angularaxistick"><text text-anchor="end" x="-2.8011848962382984" y="7.913292242441646" transform="translate(226.97041122148198,616.1158084920335)" style="font-family: 'Open Sans', verdana, arial, sans-serif; font-size: 12px; fill: rgb(42, 63, 95); fill-opacity: 1; white-space: pre; opacity: 1;">bad_region_sum</text></g><g class="angularaxistick"><text text-anchor="end" x="-2.511473670974873" y="11.087306695894638" transform="translate(267.92958444838007,714.9999999999999)" style="font-family: 'Open Sans', verdana, arial, sans-serif; font-size: 12px; fill: rgb(42, 63, 95); fill-opacity: 1; white-space: pre; opacity: 1;">child_mortality_100k_bad_region</text></g><g class="angularaxistick"><text text-anchor="end" x="-2.050609665440989" y="13.505739520663054" transform="translate(333.08621971351533,799.9137802864843)" style="font-family: 'Open Sans', verdana, arial, sans-serif; font-size: 12px; fill: rgb(42, 63, 95); fill-opacity: 1; white-space: pre; opacity: 1;">retail_bad_region</text></g><g class="angularaxistick"><text text-anchor="end" x="-1.4500000000000015" y="15.003778516388135" transform="translate(417.99999999999983,865.0704155516198)" style="font-family: 'Open Sans', verdana, arial, sans-serif; font-size: 12px; fill: rgb(42, 63, 95); fill-opacity: 1; white-space: pre; opacity: 1;">grp_bad_region</text></g><g class="angularaxistick"><text text-anchor="end" x="-0.7505752307973099" y="15.479334801137705" transform="translate(516.8841915079665,906.029588778518)" style="font-family: 'Open Sans', verdana, arial, sans-serif; font-size: 12px; fill: rgb(42, 63, 95); fill-opacity: 1; white-space: pre; opacity: 1;">disabled_100k_bad_region</text></g><g class="angularaxistick"><text text-anchor="middle" x="-5.327213576290987e-16" y="14.9" transform="translate(622.9999999999999,920)" style="font-family: 'Open Sans', verdana, arial, sans-serif; font-size: 12px; fill: rgb(42, 63, 95); fill-opacity: 1; white-space: pre; opacity: 1;">industrial_production_bad_region</text></g><g class="angularaxistick"><text text-anchor="start" x="0.7505752307973089" y="15.479334801137703" transform="translate(729.1158084920334,906.029588778518)" style="font-family: 'Open Sans', verdana, arial, sans-serif; font-size: 12px; fill: rgb(42, 63, 95); fill-opacity: 1; white-space: pre; opacity: 1;">newborn_100k_bad_region</text></g><g class="angularaxistick"><text text-anchor="start" x="1.4500000000000004" y="15.003778516388135" transform="translate(828,865.0704155516198)" style="font-family: 'Open Sans', verdana, arial, sans-serif; font-size: 12px; fill: rgb(42, 63, 95); fill-opacity: 1; white-space: pre; opacity: 1;">children_serious_crimes_bad_region</text></g><g class="angularaxistick"><text text-anchor="start" x="2.0506096654409878" y="13.50573952066306" transform="translate(912.9137802864844,799.9137802864846)" style="font-family: 'Open Sans', verdana, arial, sans-serif; font-size: 12px; fill: rgb(42, 63, 95); fill-opacity: 1; white-space: pre; opacity: 1;">poverty_percent_bad_region</text></g><g class="angularaxistick"><text text-anchor="start" x="2.5114736709748717" y="11.087306695894647" transform="translate(978.0704155516198,715.0000000000002)" style="font-family: 'Open Sans', verdana, arial, sans-serif; font-size: 12px; fill: rgb(42, 63, 95); fill-opacity: 1; white-space: pre; opacity: 1;">psychosis_bad_region</text></g><g class="angularaxistick"><text text-anchor="start" x="2.801184896238298" y="7.913292242441656" transform="translate(1019.0295887785179,616.1158084920338)" style="font-family: 'Open Sans', verdana, arial, sans-serif; font-size: 12px; fill: rgb(42, 63, 95); fill-opacity: 1; white-space: pre; opacity: 1;">repeat_serious_crimes_bad_region</text></g></g><g class="polarsublayer radial-axis" transform="translate(623,510)"><g class="xtick"><text text-anchor="middle" x="0" y="14.9" transform="" style="font-family: 'Open Sans', verdana, arial, sans-serif; font-size: 12px; fill: rgb(42, 63, 95); fill-opacity: 1; white-space: pre; opacity: 1;">0</text></g><g class="xtick"><text text-anchor="middle" x="0" y="14.9" transform="translate(41,0)" style="font-family: 'Open Sans', verdana, arial, sans-serif; font-size: 12px; fill: rgb(42, 63, 95); fill-opacity: 1; white-space: pre; opacity: 1;">0.1</text></g><g class="xtick"><text text-anchor="middle" x="0" y="14.9" transform="translate(82,0)" style="font-family: 'Open Sans', verdana, arial, sans-serif; font-size: 12px; fill: rgb(42, 63, 95); fill-opacity: 1; white-space: pre; opacity: 1;">0.2</text></g><g class="xtick"><text text-anchor="middle" x="0" y="14.9" transform="translate(123,0)" style="font-family: 'Open Sans', verdana, arial, sans-serif; font-size: 12px; fill: rgb(42, 63, 95); fill-opacity: 1; white-space: pre; opacity: 1;">0.3</text></g><g class="xtick"><text text-anchor="middle" x="0" y="14.9" transform="translate(164,0)" style="font-family: 'Open Sans', verdana, arial, sans-serif; font-size: 12px; fill: rgb(42, 63, 95); fill-opacity: 1; white-space: pre; opacity: 1;">0.4</text></g><g class="xtick"><text text-anchor="middle" x="0" y="14.9" transform="translate(205,0)" style="font-family: 'Open Sans', verdana, arial, sans-serif; font-size: 12px; fill: rgb(42, 63, 95); fill-opacity: 1; white-space: pre; opacity: 1;">0.5</text></g><g class="xtick"><text text-anchor="middle" x="0" y="14.9" transform="translate(246,0)" style="font-family: 'Open Sans', verdana, arial, sans-serif; font-size: 12px; fill: rgb(42, 63, 95); fill-opacity: 1; white-space: pre; opacity: 1;">0.6</text></g><g class="xtick"><text text-anchor="middle" x="0" y="14.9" transform="translate(287,0)" style="font-family: 'Open Sans', verdana, arial, sans-serif; font-size: 12px; fill: rgb(42, 63, 95); fill-opacity: 1; white-space: pre; opacity: 1;">0.7</text></g><g class="xtick"><text text-anchor="middle" x="0" y="14.9" transform="translate(328,0)" style="font-family: 'Open Sans', verdana, arial, sans-serif; font-size: 12px; fill: rgb(42, 63, 95); fill-opacity: 1; white-space: pre; opacity: 1;">0.8</text></g><g class="xtick"><text text-anchor="middle" x="0" y="14.9" transform="translate(369,0)" style="font-family: 'Open Sans', verdana, arial, sans-serif; font-size: 12px; fill: rgb(42, 63, 95); fill-opacity: 1; white-space: pre; opacity: 1;">0.9</text></g><g class="xtick"><text text-anchor="middle" x="0" y="14.9" transform="translate(410,0)" style="font-family: 'Open Sans', verdana, arial, sans-serif; font-size: 12px; fill: rgb(42, 63, 95); fill-opacity: 1; white-space: pre; opacity: 1;">1</text></g></g></g></g><g class="smithlayer"/><g class="ternarylayer"/><g class="geolayer"/><g class="funnelarealayer"/><g class="pielayer"/><g class="iciclelayer"/><g class="treemaplayer"/><g class="sunburstlayer"/><g class="glimages"/><defs id="topdefs-c0fb28"><g class="clips"/><clipPath id="legendc0fb28"><rect width="100" height="105" x="0" y="0"/></clipPath></defs><g class="layer-above"><g class="imagelayer"/><g class="shapelayer"/></g><g class="infolayer"><g class="legend" pointer-events="all" transform="translate(1187.72,100)"><rect class="bg" shape-rendering="crispEdges" width="100" height="105" x="0" y="0" style="stroke: rgb(68, 68, 68); stroke-opacity: 1; fill: rgb(255, 255, 255); fill-opacity: 1; stroke-width: 0px;"/><g class="scrollbox" transform="" clip-path="url(#legendc0fb28)"><g class="groups"><g class="traces" transform="translate(0,14.5)" style="opacity: 1;"><text class="legendtext" text-anchor="start" x="40" y="4.680000000000001" style="font-family: 'Open Sans', verdana, arial, sans-serif; font-size: 12px; fill: rgb(42, 63, 95); fill-opacity: 1; white-space: pre;">Cluster 0</text><g class="layers" style="opacity: 1;"><g class="legendfill"><path class="js-fill" d="M5,-2h30v6h-30z" style="stroke-width: 0; fill: rgb(99, 110, 250); fill-opacity: 0.5;"/></g><g class="legendlines"><path class="js-line" d="M5,-2h30" style="fill: none; stroke: rgb(99, 110, 250); stroke-opacity: 1; stroke-width: 2px;"/></g><g class="legendsymbols"><g class="legendpoints"/></g></g><rect class="legendtoggle" x="0" y="-9.5" width="94.375" height="19" style="fill: rgb(0, 0, 0); fill-opacity: 0;"/></g><g class="traces" transform="translate(0,33.5)" style="opacity: 1;"><text class="legendtext" text-anchor="start" x="40" y="4.680000000000001" style="font-family: 'Open Sans', verdana, arial, sans-serif; font-size: 12px; fill: rgb(42, 63, 95); fill-opacity: 1; white-space: pre;">Cluster 1</text><g class="layers" style="opacity: 1;"><g class="legendfill"><path class="js-fill" d="M5,-2h30v6h-30z" style="stroke-width: 0; fill: rgb(239, 85, 59); fill-opacity: 0.5;"/></g><g class="legendlines"><path class="js-line" d="M5,-2h30" style="fill: none; stroke: rgb(239, 85, 59); stroke-opacity: 1; stroke-width: 2px;"/></g><g class="legendsymbols"><g class="legendpoints"/></g></g><rect class="legendtoggle" x="0" y="-9.5" width="94.375" height="19" style="fill: rgb(0, 0, 0); fill-opacity: 0;"/></g><g class="traces" transform="translate(0,52.5)" style="opacity: 1;"><text class="legendtext" text-anchor="start" x="40" y="4.680000000000001" style="font-family: 'Open Sans', verdana, arial, sans-serif; font-size: 12px; fill: rgb(42, 63, 95); fill-opacity: 1; white-space: pre;">Cluster 2</text><g class="layers" style="opacity: 1;"><g class="legendfill"><path class="js-fill" d="M5,-2h30v6h-30z" style="stroke-width: 0; fill: rgb(0, 204, 150); fill-opacity: 0.5;"/></g><g class="legendlines"><path class="js-line" d="M5,-2h30" style="fill: none; stroke: rgb(0, 204, 150); stroke-opacity: 1; stroke-width: 2px;"/></g><g class="legendsymbols"><g class="legendpoints"/></g></g><rect class="legendtoggle" x="0" y="-9.5" width="94.375" height="19" style="fill: rgb(0, 0, 0); fill-opacity: 0;"/></g><g class="traces" transform="translate(0,71.5)" style="opacity: 1;"><text class="legendtext" text-anchor="start" x="40" y="4.680000000000001" style="font-family: 'Open Sans', verdana, arial, sans-serif; font-size: 12px; fill: rgb(42, 63, 95); fill-opacity: 1; white-space: pre;">Cluster 3</text><g class="layers" style="opacity: 1;"><g class="legendfill"><path class="js-fill" d="M5,-2h30v6h-30z" style="stroke-width: 0; fill: rgb(171, 99, 250); fill-opacity: 0.5;"/></g><g class="legendlines"><path class="js-line" d="M5,-2h30" style="fill: none; stroke: rgb(171, 99, 250); stroke-opacity: 1; stroke-width: 2px;"/></g><g class="legendsymbols"><g class="legendpoints"/></g></g><rect class="legendtoggle" x="0" y="-9.5" width="94.375" height="19" style="fill: rgb(0, 0, 0); fill-opacity: 0;"/></g><g class="traces" transform="translate(0,90.5)" style="opacity: 1;"><text class="legendtext" text-anchor="start" x="40" y="4.680000000000001" style="font-family: 'Open Sans', verdana, arial, sans-serif; font-size: 12px; fill: rgb(42, 63, 95); fill-opacity: 1; white-space: pre;">Cluster 4</text><g class="layers" style="opacity: 1;"><g class="legendfill"><path class="js-fill" d="M5,-2h30v6h-30z" style="stroke-width: 0; fill: rgb(255, 161, 90); fill-opacity: 0.5;"/></g><g class="legendlines"><path class="js-line" d="M5,-2h30" style="fill: none; stroke: rgb(255, 161, 90); stroke-opacity: 1; stroke-width: 2px;"/></g><g class="legendsymbols"><g class="legendpoints"/></g></g><rect class="legendtoggle" x="0" y="-9.5" width="94.375" height="19" style="fill: rgb(0, 0, 0); fill-opacity: 0;"/></g></g></g><rect class="scrollbar" rx="20" ry="3" width="0" height="0" x="0" y="0" style="fill: rgb(128, 139, 164); fill-opacity: 1;"/></g><g class="g-gtitle"/><g class="g-polartitle"/></g></svg>