<?xml version="1.0" encoding="utf-8" standalone="no"?>
<!DOCTYPE svg PUBLIC "-//W3C//DTD SVG 1.1//EN"
  "http://www.w3.org/Graphics/SVG/1.1/DTD/svg11.dtd">
<svg xmlns:xlink="http://www.w3.org/1999/xlink" width="864pt" height="360pt" viewBox="0 0 864 360" xmlns="http://www.w3.org/2000/svg" version="1.1">
 <metadata>
  <rdf:RDF xmlns:dc="http://purl.org/dc/elements/1.1/" xmlns:cc="http://creativecommons.org/ns#" xmlns:rdf="http://www.w3.org/1999/02/22-rdf-syntax-ns#">
   <cc:Work>
    <dc:type rdf:resource="http://purl.org/dc/dcmitype/StillImage"/>
    <dc:date>2023-09-27T21:03:09.023993</dc:date>
    <dc:format>image/svg+xml</dc:format>
    <dc:creator>
     <cc:Agent>
      <dc:title>Matplotlib v3.7.1, https://matplotlib.org/</dc:title>
     </cc:Agent>
    </dc:creator>
   </cc:Work>
  </rdf:RDF>
 </metadata>
 <defs>
  <style type="text/css">*{stroke-linejoin: round; stroke-linecap: butt}</style>
 </defs>
 <g id="figure_1">
  <g id="patch_1">
   <path d="M 0 360 
L 864 360 
L 864 0 
L 0 0 
z
" style="fill: #ffffff"/>
  </g>
  <g id="axes_1">
   <g id="patch_2">
    <path d="M 130.6975 318.84375 
L 853.2 318.84375 
L 853.2 35.149375 
L 130.6975 35.149375 
z
" style="fill: #ffffff"/>
   </g>
   <g id="patch_3">
    <path d="M 130.6975 37.040671 
L 250.225176 37.040671 
L 250.225176 52.171038 
L 130.6975 52.171038 
z
" clip-path="url(#p8c5db4ea69)" style="fill: #ea96a3"/>
   </g>
   <g id="patch_4">
    <path d="M 130.6975 55.953629 
L 131.434618 55.953629 
L 131.434618 71.083996 
L 130.6975 71.083996 
z
" clip-path="url(#p8c5db4ea69)" style="fill: #e59471"/>
   </g>
   <g id="patch_5">
    <path d="M 130.6975 74.866588 
L 131.42242 74.866588 
L 131.42242 89.996954 
L 130.6975 89.996954 
z
" clip-path="url(#p8c5db4ea69)" style="fill: #c6994b"/>
   </g>
   <g id="patch_6">
    <path d="M 130.6975 93.779546 
L 140.390184 93.779546 
L 140.390184 108.909913 
L 130.6975 108.909913 
z
" clip-path="url(#p8c5db4ea69)" style="fill: #ab9e47"/>
   </g>
   <g id="patch_7">
    <path d="M 130.6975 112.692504 
L 135.007247 112.692504 
L 135.007247 127.822871 
L 130.6975 127.822871 
z
" clip-path="url(#p8c5db4ea69)" style="fill: #91a446"/>
   </g>
   <g id="patch_8">
    <path d="M 130.6975 131.605463 
L 818.795119 131.605463 
L 818.795119 146.735829 
L 130.6975 146.735829 
z
" clip-path="url(#p8c5db4ea69)" style="fill: #60ae47"/>
   </g>
   <g id="patch_9">
    <path d="M 130.6975 150.518421 
L 139.413405 150.518421 
L 139.413405 165.648788 
L 130.6975 165.648788 
z
" clip-path="url(#p8c5db4ea69)" style="fill: #49ae83"/>
   </g>
   <g id="patch_10">
    <path d="M 130.6975 169.431379 
L 132.223333 169.431379 
L 132.223333 184.561746 
L 130.6975 184.561746 
z
" clip-path="url(#p8c5db4ea69)" style="fill: #4aac9b"/>
   </g>
   <g id="patch_11">
    <path d="M 130.6975 188.344338 
L 264.7845 188.344338 
L 264.7845 203.474704 
L 130.6975 203.474704 
z
" clip-path="url(#p8c5db4ea69)" style="fill: #4cabad"/>
   </g>
   <g id="patch_12">
    <path d="M 130.6975 207.257296 
L 131.686028 207.257296 
L 131.686028 222.387663 
L 130.6975 222.387663 
z
" clip-path="url(#p8c5db4ea69)" style="fill: #50acc3"/>
   </g>
   <g id="patch_13">
    <path d="M 130.6975 226.170254 
L 138.475032 226.170254 
L 138.475032 241.300621 
L 130.6975 241.300621 
z
" clip-path="url(#p8c5db4ea69)" style="fill: #6daee2"/>
   </g>
   <g id="patch_14">
    <path d="M 130.6975 245.083213 
L 153.30379 245.083213 
L 153.30379 260.213579 
L 130.6975 260.213579 
z
" clip-path="url(#p8c5db4ea69)" style="fill: #adabeb"/>
   </g>
   <g id="patch_15">
    <path d="M 130.6975 263.996171 
L 188.96561 263.996171 
L 188.96561 279.126538 
L 130.6975 279.126538 
z
" clip-path="url(#p8c5db4ea69)" style="fill: #ce9be9"/>
   </g>
   <g id="patch_16">
    <path d="M 130.6975 282.909129 
L 131.247907 282.909129 
L 131.247907 298.039496 
L 130.6975 298.039496 
z
" clip-path="url(#p8c5db4ea69)" style="fill: #e78bdb"/>
   </g>
   <g id="patch_17">
    <path d="M 130.6975 301.822088 
L 130.866061 301.822088 
L 130.866061 316.952454 
L 130.6975 316.952454 
z
" clip-path="url(#p8c5db4ea69)" style="fill: #e891bf"/>
   </g>
   <g id="matplotlib.axis_1">
    <g id="xtick_1">
     <g id="line2d_1">
      <defs>
       <path id="m2e5880c377" d="M 0 0 
L 0 3.5 
" style="stroke: #000000; stroke-width: 0.8"/>
      </defs>
      <g>
       <use xlink:href="#m2e5880c377" x="130.6975" y="318.84375" style="stroke: #000000; stroke-width: 0.8"/>
      </g>
     </g>
     <g id="text_1">
      <!-- 0.0 -->
      <g transform="translate(122.745938 333.442187) scale(0.1 -0.1)">
       <defs>
        <path id="DejaVuSans-30" d="M 2034 4250 
Q 1547 4250 1301 3770 
Q 1056 3291 1056 2328 
Q 1056 1369 1301 889 
Q 1547 409 2034 409 
Q 2525 409 2770 889 
Q 3016 1369 3016 2328 
Q 3016 3291 2770 3770 
Q 2525 4250 2034 4250 
z
M 2034 4750 
Q 2819 4750 3233 4129 
Q 3647 3509 3647 2328 
Q 3647 1150 3233 529 
Q 2819 -91 2034 -91 
Q 1250 -91 836 529 
Q 422 1150 422 2328 
Q 422 3509 836 4129 
Q 1250 4750 2034 4750 
z
" transform="scale(0.015625)"/>
        <path id="DejaVuSans-2e" d="M 684 794 
L 1344 794 
L 1344 0 
L 684 0 
L 684 794 
z
" transform="scale(0.015625)"/>
       </defs>
       <use xlink:href="#DejaVuSans-30"/>
       <use xlink:href="#DejaVuSans-2e" x="63.623047"/>
       <use xlink:href="#DejaVuSans-30" x="95.410156"/>
      </g>
     </g>
    </g>
    <g id="xtick_2">
     <g id="line2d_2">
      <g>
       <use xlink:href="#m2e5880c377" x="256.646156" y="318.84375" style="stroke: #000000; stroke-width: 0.8"/>
      </g>
     </g>
     <g id="text_2">
      <!-- 0.2 -->
      <g transform="translate(248.694593 333.442187) scale(0.1 -0.1)">
       <defs>
        <path id="DejaVuSans-32" d="M 1228 531 
L 3431 531 
L 3431 0 
L 469 0 
L 469 531 
Q 828 903 1448 1529 
Q 2069 2156 2228 2338 
Q 2531 2678 2651 2914 
Q 2772 3150 2772 3378 
Q 2772 3750 2511 3984 
Q 2250 4219 1831 4219 
Q 1534 4219 1204 4116 
Q 875 4013 500 3803 
L 500 4441 
Q 881 4594 1212 4672 
Q 1544 4750 1819 4750 
Q 2544 4750 2975 4387 
Q 3406 4025 3406 3419 
Q 3406 3131 3298 2873 
Q 3191 2616 2906 2266 
Q 2828 2175 2409 1742 
Q 1991 1309 1228 531 
z
" transform="scale(0.015625)"/>
       </defs>
       <use xlink:href="#DejaVuSans-30"/>
       <use xlink:href="#DejaVuSans-2e" x="63.623047"/>
       <use xlink:href="#DejaVuSans-32" x="95.410156"/>
      </g>
     </g>
    </g>
    <g id="xtick_3">
     <g id="line2d_3">
      <g>
       <use xlink:href="#m2e5880c377" x="382.594811" y="318.84375" style="stroke: #000000; stroke-width: 0.8"/>
      </g>
     </g>
     <g id="text_3">
      <!-- 0.4 -->
      <g transform="translate(374.643249 333.442187) scale(0.1 -0.1)">
       <defs>
        <path id="DejaVuSans-34" d="M 2419 4116 
L 825 1625 
L 2419 1625 
L 2419 4116 
z
M 2253 4666 
L 3047 4666 
L 3047 1625 
L 3713 1625 
L 3713 1100 
L 3047 1100 
L 3047 0 
L 2419 0 
L 2419 1100 
L 313 1100 
L 313 1709 
L 2253 4666 
z
" transform="scale(0.015625)"/>
       </defs>
       <use xlink:href="#DejaVuSans-30"/>
       <use xlink:href="#DejaVuSans-2e" x="63.623047"/>
       <use xlink:href="#DejaVuSans-34" x="95.410156"/>
      </g>
     </g>
    </g>
    <g id="xtick_4">
     <g id="line2d_4">
      <g>
       <use xlink:href="#m2e5880c377" x="508.543467" y="318.84375" style="stroke: #000000; stroke-width: 0.8"/>
      </g>
     </g>
     <g id="text_4">
      <!-- 0.6 -->
      <g transform="translate(500.591904 333.442187) scale(0.1 -0.1)">
       <defs>
        <path id="DejaVuSans-36" d="M 2113 2584 
Q 1688 2584 1439 2293 
Q 1191 2003 1191 1497 
Q 1191 994 1439 701 
Q 1688 409 2113 409 
Q 2538 409 2786 701 
Q 3034 994 3034 1497 
Q 3034 2003 2786 2293 
Q 2538 2584 2113 2584 
z
M 3366 4563 
L 3366 3988 
Q 3128 4100 2886 4159 
Q 2644 4219 2406 4219 
Q 1781 4219 1451 3797 
Q 1122 3375 1075 2522 
Q 1259 2794 1537 2939 
Q 1816 3084 2150 3084 
Q 2853 3084 3261 2657 
Q 3669 2231 3669 1497 
Q 3669 778 3244 343 
Q 2819 -91 2113 -91 
Q 1303 -91 875 529 
Q 447 1150 447 2328 
Q 447 3434 972 4092 
Q 1497 4750 2381 4750 
Q 2619 4750 2861 4703 
Q 3103 4656 3366 4563 
z
" transform="scale(0.015625)"/>
       </defs>
       <use xlink:href="#DejaVuSans-30"/>
       <use xlink:href="#DejaVuSans-2e" x="63.623047"/>
       <use xlink:href="#DejaVuSans-36" x="95.410156"/>
      </g>
     </g>
    </g>
    <g id="xtick_5">
     <g id="line2d_5">
      <g>
       <use xlink:href="#m2e5880c377" x="634.492122" y="318.84375" style="stroke: #000000; stroke-width: 0.8"/>
      </g>
     </g>
     <g id="text_5">
      <!-- 0.8 -->
      <g transform="translate(626.54056 333.442187) scale(0.1 -0.1)">
       <defs>
        <path id="DejaVuSans-38" d="M 2034 2216 
Q 1584 2216 1326 1975 
Q 1069 1734 1069 1313 
Q 1069 891 1326 650 
Q 1584 409 2034 409 
Q 2484 409 2743 651 
Q 3003 894 3003 1313 
Q 3003 1734 2745 1975 
Q 2488 2216 2034 2216 
z
M 1403 2484 
Q 997 2584 770 2862 
Q 544 3141 544 3541 
Q 544 4100 942 4425 
Q 1341 4750 2034 4750 
Q 2731 4750 3128 4425 
Q 3525 4100 3525 3541 
Q 3525 3141 3298 2862 
Q 3072 2584 2669 2484 
Q 3125 2378 3379 2068 
Q 3634 1759 3634 1313 
Q 3634 634 3220 271 
Q 2806 -91 2034 -91 
Q 1263 -91 848 271 
Q 434 634 434 1313 
Q 434 1759 690 2068 
Q 947 2378 1403 2484 
z
M 1172 3481 
Q 1172 3119 1398 2916 
Q 1625 2713 2034 2713 
Q 2441 2713 2670 2916 
Q 2900 3119 2900 3481 
Q 2900 3844 2670 4047 
Q 2441 4250 2034 4250 
Q 1625 4250 1398 4047 
Q 1172 3844 1172 3481 
z
" transform="scale(0.015625)"/>
       </defs>
       <use xlink:href="#DejaVuSans-30"/>
       <use xlink:href="#DejaVuSans-2e" x="63.623047"/>
       <use xlink:href="#DejaVuSans-38" x="95.410156"/>
      </g>
     </g>
    </g>
    <g id="xtick_6">
     <g id="line2d_6">
      <g>
       <use xlink:href="#m2e5880c377" x="760.440778" y="318.84375" style="stroke: #000000; stroke-width: 0.8"/>
      </g>
     </g>
     <g id="text_6">
      <!-- 1.0 -->
      <g transform="translate(752.489215 333.442187) scale(0.1 -0.1)">
       <defs>
        <path id="DejaVuSans-31" d="M 794 531 
L 1825 531 
L 1825 4091 
L 703 3866 
L 703 4441 
L 1819 4666 
L 2450 4666 
L 2450 531 
L 3481 531 
L 3481 0 
L 794 0 
L 794 531 
z
" transform="scale(0.015625)"/>
       </defs>
       <use xlink:href="#DejaVuSans-31"/>
       <use xlink:href="#DejaVuSans-2e" x="63.623047"/>
       <use xlink:href="#DejaVuSans-30" x="95.410156"/>
      </g>
     </g>
    </g>
    <g id="text_7">
     <!-- mining -->
     <g transform="translate(474.788594 347.120312) scale(0.1 -0.1)">
      <defs>
       <path id="DejaVuSans-6d" d="M 3328 2828 
Q 3544 3216 3844 3400 
Q 4144 3584 4550 3584 
Q 5097 3584 5394 3201 
Q 5691 2819 5691 2113 
L 5691 0 
L 5113 0 
L 5113 2094 
Q 5113 2597 4934 2840 
Q 4756 3084 4391 3084 
Q 3944 3084 3684 2787 
Q 3425 2491 3425 1978 
L 3425 0 
L 2847 0 
L 2847 2094 
Q 2847 2600 2669 2842 
Q 2491 3084 2119 3084 
Q 1678 3084 1418 2786 
Q 1159 2488 1159 1978 
L 1159 0 
L 581 0 
L 581 3500 
L 1159 3500 
L 1159 2956 
Q 1356 3278 1631 3431 
Q 1906 3584 2284 3584 
Q 2666 3584 2933 3390 
Q 3200 3197 3328 2828 
z
" transform="scale(0.015625)"/>
       <path id="DejaVuSans-69" d="M 603 3500 
L 1178 3500 
L 1178 0 
L 603 0 
L 603 3500 
z
M 603 4863 
L 1178 4863 
L 1178 4134 
L 603 4134 
L 603 4863 
z
" transform="scale(0.015625)"/>
       <path id="DejaVuSans-6e" d="M 3513 2113 
L 3513 0 
L 2938 0 
L 2938 2094 
Q 2938 2591 2744 2837 
Q 2550 3084 2163 3084 
Q 1697 3084 1428 2787 
Q 1159 2491 1159 1978 
L 1159 0 
L 581 0 
L 581 3500 
L 1159 3500 
L 1159 2956 
Q 1366 3272 1645 3428 
Q 1925 3584 2291 3584 
Q 2894 3584 3203 3211 
Q 3513 2838 3513 2113 
z
" transform="scale(0.015625)"/>
       <path id="DejaVuSans-67" d="M 2906 1791 
Q 2906 2416 2648 2759 
Q 2391 3103 1925 3103 
Q 1463 3103 1205 2759 
Q 947 2416 947 1791 
Q 947 1169 1205 825 
Q 1463 481 1925 481 
Q 2391 481 2648 825 
Q 2906 1169 2906 1791 
z
M 3481 434 
Q 3481 -459 3084 -895 
Q 2688 -1331 1869 -1331 
Q 1566 -1331 1297 -1286 
Q 1028 -1241 775 -1147 
L 775 -588 
Q 1028 -725 1275 -790 
Q 1522 -856 1778 -856 
Q 2344 -856 2625 -561 
Q 2906 -266 2906 331 
L 2906 616 
Q 2728 306 2450 153 
Q 2172 0 1784 0 
Q 1141 0 747 490 
Q 353 981 353 1791 
Q 353 2603 747 3093 
Q 1141 3584 1784 3584 
Q 2172 3584 2450 3431 
Q 2728 3278 2906 2969 
L 2906 3500 
L 3481 3500 
L 3481 434 
z
" transform="scale(0.015625)"/>
      </defs>
      <use xlink:href="#DejaVuSans-6d"/>
      <use xlink:href="#DejaVuSans-69" x="97.412109"/>
      <use xlink:href="#DejaVuSans-6e" x="125.195312"/>
      <use xlink:href="#DejaVuSans-69" x="188.574219"/>
      <use xlink:href="#DejaVuSans-6e" x="216.357422"/>
      <use xlink:href="#DejaVuSans-67" x="279.736328"/>
     </g>
    </g>
    <g id="text_8">
     <!-- 1e9 -->
     <g transform="translate(834.321875 346.120312) scale(0.1 -0.1)">
      <defs>
       <path id="DejaVuSans-65" d="M 3597 1894 
L 3597 1613 
L 953 1613 
Q 991 1019 1311 708 
Q 1631 397 2203 397 
Q 2534 397 2845 478 
Q 3156 559 3463 722 
L 3463 178 
Q 3153 47 2828 -22 
Q 2503 -91 2169 -91 
Q 1331 -91 842 396 
Q 353 884 353 1716 
Q 353 2575 817 3079 
Q 1281 3584 2069 3584 
Q 2775 3584 3186 3129 
Q 3597 2675 3597 1894 
z
M 3022 2063 
Q 3016 2534 2758 2815 
Q 2500 3097 2075 3097 
Q 1594 3097 1305 2825 
Q 1016 2553 972 2059 
L 3022 2063 
z
" transform="scale(0.015625)"/>
       <path id="DejaVuSans-39" d="M 703 97 
L 703 672 
Q 941 559 1184 500 
Q 1428 441 1663 441 
Q 2288 441 2617 861 
Q 2947 1281 2994 2138 
Q 2813 1869 2534 1725 
Q 2256 1581 1919 1581 
Q 1219 1581 811 2004 
Q 403 2428 403 3163 
Q 403 3881 828 4315 
Q 1253 4750 1959 4750 
Q 2769 4750 3195 4129 
Q 3622 3509 3622 2328 
Q 3622 1225 3098 567 
Q 2575 -91 1691 -91 
Q 1453 -91 1209 -44 
Q 966 3 703 97 
z
M 1959 2075 
Q 2384 2075 2632 2365 
Q 2881 2656 2881 3163 
Q 2881 3666 2632 3958 
Q 2384 4250 1959 4250 
Q 1534 4250 1286 3958 
Q 1038 3666 1038 3163 
Q 1038 2656 1286 2365 
Q 1534 2075 1959 2075 
z
" transform="scale(0.015625)"/>
      </defs>
      <use xlink:href="#DejaVuSans-31"/>
      <use xlink:href="#DejaVuSans-65" x="63.623047"/>
      <use xlink:href="#DejaVuSans-39" x="125.146484"/>
     </g>
    </g>
   </g>
   <g id="matplotlib.axis_2">
    <g id="ytick_1">
     <g id="line2d_7">
      <defs>
       <path id="me02d79d209" d="M 0 0 
L -3.5 0 
" style="stroke: #000000; stroke-width: 0.8"/>
      </defs>
      <g>
       <use xlink:href="#me02d79d209" x="130.6975" y="44.605854" style="stroke: #000000; stroke-width: 0.8"/>
      </g>
     </g>
     <g id="text_9">
      <!-- Белгородская область -->
      <g transform="translate(28.46125 47.713354) scale(0.08 -0.08)">
       <defs>
        <path id="DejaVuSans-411" d="M 3272 1372 
Q 3272 1806 3026 2017 
Q 2781 2228 2272 2228 
L 1259 2228 
L 1259 519 
L 2272 519 
Q 2781 519 3026 730 
Q 3272 941 3272 1372 
z
M 3609 4666 
L 3609 4147 
L 1259 4147 
L 1259 2747 
L 2303 2747 
Q 3088 2747 3513 2406 
Q 3938 2066 3938 1372 
Q 3938 681 3527 340 
Q 3116 0 2303 0 
L 628 0 
L 628 4666 
L 3609 4666 
z
" transform="scale(0.015625)"/>
        <path id="DejaVuSans-435" d="M 3597 1894 
L 3597 1613 
L 953 1613 
Q 991 1019 1311 708 
Q 1631 397 2203 397 
Q 2534 397 2845 478 
Q 3156 559 3463 722 
L 3463 178 
Q 3153 47 2828 -22 
Q 2503 -91 2169 -91 
Q 1331 -91 842 396 
Q 353 884 353 1716 
Q 353 2575 817 3079 
Q 1281 3584 2069 3584 
Q 2775 3584 3186 3129 
Q 3597 2675 3597 1894 
z
M 3022 2063 
Q 3016 2534 2758 2815 
Q 2500 3097 2075 3097 
Q 1594 3097 1305 2825 
Q 1016 2553 972 2059 
L 3022 2063 
z
" transform="scale(0.015625)"/>
        <path id="DejaVuSans-43b" d="M 238 0 
L 238 478 
Q 806 566 981 959 
Q 1194 1513 1194 2928 
L 1194 3500 
L 3559 3500 
L 3559 0 
L 2984 0 
L 2984 3041 
L 1769 3041 
L 1769 2694 
Q 1769 1344 1494 738 
Q 1200 91 238 0 
z
" transform="scale(0.015625)"/>
        <path id="DejaVuSans-433" d="M 581 0 
L 581 3500 
L 3050 3500 
L 3050 3041 
L 1159 3041 
L 1159 0 
L 581 0 
z
" transform="scale(0.015625)"/>
        <path id="DejaVuSans-43e" d="M 1959 3097 
Q 1497 3097 1228 2736 
Q 959 2375 959 1747 
Q 959 1119 1226 758 
Q 1494 397 1959 397 
Q 2419 397 2687 759 
Q 2956 1122 2956 1747 
Q 2956 2369 2687 2733 
Q 2419 3097 1959 3097 
z
M 1959 3584 
Q 2709 3584 3137 3096 
Q 3566 2609 3566 1747 
Q 3566 888 3137 398 
Q 2709 -91 1959 -91 
Q 1206 -91 779 398 
Q 353 888 353 1747 
Q 353 2609 779 3096 
Q 1206 3584 1959 3584 
z
" transform="scale(0.015625)"/>
        <path id="DejaVuSans-440" d="M 1159 525 
L 1159 -1331 
L 581 -1331 
L 581 3500 
L 1159 3500 
L 1159 2969 
Q 1341 3281 1617 3432 
Q 1894 3584 2278 3584 
Q 2916 3584 3314 3078 
Q 3713 2572 3713 1747 
Q 3713 922 3314 415 
Q 2916 -91 2278 -91 
Q 1894 -91 1617 61 
Q 1341 213 1159 525 
z
M 3116 1747 
Q 3116 2381 2855 2742 
Q 2594 3103 2138 3103 
Q 1681 3103 1420 2742 
Q 1159 2381 1159 1747 
Q 1159 1113 1420 752 
Q 1681 391 2138 391 
Q 2594 391 2855 752 
Q 3116 1113 3116 1747 
z
" transform="scale(0.015625)"/>
        <path id="DejaVuSans-434" d="M 1384 459 
L 3053 459 
L 3053 3041 
L 1844 3041 
L 1844 2603 
Q 1844 1316 1475 628 
L 1384 459 
z
M 550 459 
Q 834 584 959 850 
Q 1266 1509 1266 2838 
L 1266 3500 
L 3631 3500 
L 3631 459 
L 4091 459 
L 4091 -884 
L 3631 -884 
L 3631 0 
L 794 0 
L 794 -884 
L 334 -884 
L 334 459 
L 550 459 
z
" transform="scale(0.015625)"/>
        <path id="DejaVuSans-441" d="M 3122 3366 
L 3122 2828 
Q 2878 2963 2633 3030 
Q 2388 3097 2138 3097 
Q 1578 3097 1268 2742 
Q 959 2388 959 1747 
Q 959 1106 1268 751 
Q 1578 397 2138 397 
Q 2388 397 2633 464 
Q 2878 531 3122 666 
L 3122 134 
Q 2881 22 2623 -34 
Q 2366 -91 2075 -91 
Q 1284 -91 818 406 
Q 353 903 353 1747 
Q 353 2603 823 3093 
Q 1294 3584 2113 3584 
Q 2378 3584 2631 3529 
Q 2884 3475 3122 3366 
z
" transform="scale(0.015625)"/>
        <path id="DejaVuSans-43a" d="M 581 3500 
L 1153 3500 
L 1153 1856 
L 2775 3500 
L 3481 3500 
L 2144 2147 
L 3653 0 
L 3009 0 
L 1769 1766 
L 1153 1141 
L 1153 0 
L 581 0 
L 581 3500 
z
" transform="scale(0.015625)"/>
        <path id="DejaVuSans-430" d="M 2194 1759 
Q 1497 1759 1228 1600 
Q 959 1441 959 1056 
Q 959 750 1161 570 
Q 1363 391 1709 391 
Q 2188 391 2477 730 
Q 2766 1069 2766 1631 
L 2766 1759 
L 2194 1759 
z
M 3341 1997 
L 3341 0 
L 2766 0 
L 2766 531 
Q 2569 213 2275 61 
Q 1981 -91 1556 -91 
Q 1019 -91 701 211 
Q 384 513 384 1019 
Q 384 1609 779 1909 
Q 1175 2209 1959 2209 
L 2766 2209 
L 2766 2266 
Q 2766 2663 2505 2880 
Q 2244 3097 1772 3097 
Q 1472 3097 1187 3025 
Q 903 2953 641 2809 
L 641 3341 
Q 956 3463 1253 3523 
Q 1550 3584 1831 3584 
Q 2591 3584 2966 3190 
Q 3341 2797 3341 1997 
z
" transform="scale(0.015625)"/>
        <path id="DejaVuSans-44f" d="M 1181 2491 
Q 1181 2231 1381 2084 
Q 1581 1938 1953 1938 
L 2728 1938 
L 2728 3041 
L 1953 3041 
Q 1581 3041 1381 2897 
Q 1181 2753 1181 2491 
z
M 363 0 
L 1431 1534 
Q 1069 1616 828 1830 
Q 588 2044 588 2491 
Q 588 2997 923 3248 
Q 1259 3500 1938 3500 
L 3306 3500 
L 3306 0 
L 2728 0 
L 2728 1478 
L 2013 1478 
L 981 0 
L 363 0 
z
" transform="scale(0.015625)"/>
        <path id="DejaVuSans-20" transform="scale(0.015625)"/>
        <path id="DejaVuSans-431" d="M 1991 3584 
Q 2741 3584 3169 3096 
Q 3597 2609 3597 1747 
Q 3597 888 3169 398 
Q 2741 -91 1991 -91 
Q 1238 -91 822 384 
Q 406 859 384 1747 
L 366 2463 
Q 350 2834 350 2963 
Q 350 3463 531 3831 
Q 816 4409 1308 4659 
Q 1800 4909 2625 4916 
Q 3006 4919 3175 4972 
L 3334 4516 
Q 3181 4453 3041 4450 
L 2259 4397 
Q 1866 4369 1628 4231 
Q 1006 3866 947 3388 
L 925 3213 
Q 1331 3584 1991 3584 
z
M 1991 3097 
Q 1528 3097 1259 2736 
Q 991 2375 991 1747 
Q 991 1119 1258 758 
Q 1525 397 1991 397 
Q 2450 397 2719 759 
Q 2988 1122 2988 1747 
Q 2988 2369 2719 2733 
Q 2450 3097 1991 3097 
z
" transform="scale(0.015625)"/>
        <path id="DejaVuSans-442" d="M 188 3500 
L 3541 3500 
L 3541 3041 
L 2147 3041 
L 2147 0 
L 1581 0 
L 1581 3041 
L 188 3041 
L 188 3500 
z
" transform="scale(0.015625)"/>
        <path id="DejaVuSans-44c" d="M 2781 1038 
Q 2781 1319 2576 1466 
Q 2372 1613 1978 1613 
L 1159 1613 
L 1159 459 
L 1978 459 
Q 2372 459 2576 607 
Q 2781 756 2781 1038 
z
M 581 3500 
L 1159 3500 
L 1159 2072 
L 2003 2072 
Q 2672 2072 3033 1817 
Q 3394 1563 3394 1038 
Q 3394 513 3033 256 
Q 2672 0 2003 0 
L 581 0 
L 581 3500 
z
" transform="scale(0.015625)"/>
       </defs>
       <use xlink:href="#DejaVuSans-411"/>
       <use xlink:href="#DejaVuSans-435" x="68.603516"/>
       <use xlink:href="#DejaVuSans-43b" x="130.126953"/>
       <use xlink:href="#DejaVuSans-433" x="194.042969"/>
       <use xlink:href="#DejaVuSans-43e" x="246.582031"/>
       <use xlink:href="#DejaVuSans-440" x="307.763672"/>
       <use xlink:href="#DejaVuSans-43e" x="371.240234"/>
       <use xlink:href="#DejaVuSans-434" x="432.421875"/>
       <use xlink:href="#DejaVuSans-441" x="501.5625"/>
       <use xlink:href="#DejaVuSans-43a" x="556.542969"/>
       <use xlink:href="#DejaVuSans-430" x="616.943359"/>
       <use xlink:href="#DejaVuSans-44f" x="678.222656"/>
       <use xlink:href="#DejaVuSans-20" x="738.378906"/>
       <use xlink:href="#DejaVuSans-43e" x="770.166016"/>
       <use xlink:href="#DejaVuSans-431" x="831.347656"/>
       <use xlink:href="#DejaVuSans-43b" x="893.017578"/>
       <use xlink:href="#DejaVuSans-430" x="956.933594"/>
       <use xlink:href="#DejaVuSans-441" x="1018.212891"/>
       <use xlink:href="#DejaVuSans-442" x="1073.193359"/>
       <use xlink:href="#DejaVuSans-44c" x="1131.445312"/>
      </g>
     </g>
    </g>
    <g id="ytick_2">
     <g id="line2d_8">
      <g>
       <use xlink:href="#me02d79d209" x="130.6975" y="63.518813" style="stroke: #000000; stroke-width: 0.8"/>
      </g>
     </g>
     <g id="text_10">
      <!-- Ивановская область -->
      <g transform="translate(38.1475 66.558188) scale(0.08 -0.08)">
       <defs>
        <path id="DejaVuSans-418" d="M 4159 4666 
L 4159 0 
L 3547 0 
L 3547 3903 
L 1478 0 
L 628 0 
L 628 4666 
L 1241 4666 
L 1241 763 
L 3309 4666 
L 4159 4666 
z
" transform="scale(0.015625)"/>
        <path id="DejaVuSans-432" d="M 1156 1613 
L 1156 459 
L 1975 459 
Q 2369 459 2575 607 
Q 2781 756 2781 1038 
Q 2781 1319 2575 1466 
Q 2369 1613 1975 1613 
L 1156 1613 
z
M 1156 3041 
L 1156 2072 
L 1913 2072 
Q 2238 2072 2444 2201 
Q 2650 2331 2650 2563 
Q 2650 2794 2444 2917 
Q 2238 3041 1913 3041 
L 1156 3041 
z
M 581 3500 
L 1950 3500 
Q 2566 3500 2897 3275 
Q 3228 3050 3228 2634 
Q 3228 2313 3059 2123 
Q 2891 1934 2559 1888 
Q 2956 1813 3175 1575 
Q 3394 1338 3394 981 
Q 3394 513 3033 256 
Q 2672 0 2003 0 
L 581 0 
L 581 3500 
z
" transform="scale(0.015625)"/>
        <path id="DejaVuSans-43d" d="M 581 3500 
L 1159 3500 
L 1159 2072 
L 3025 2072 
L 3025 3500 
L 3603 3500 
L 3603 0 
L 3025 0 
L 3025 1613 
L 1159 1613 
L 1159 0 
L 581 0 
L 581 3500 
z
" transform="scale(0.015625)"/>
       </defs>
       <use xlink:href="#DejaVuSans-418"/>
       <use xlink:href="#DejaVuSans-432" x="74.804688"/>
       <use xlink:href="#DejaVuSans-430" x="133.740234"/>
       <use xlink:href="#DejaVuSans-43d" x="195.019531"/>
       <use xlink:href="#DejaVuSans-43e" x="260.400391"/>
       <use xlink:href="#DejaVuSans-432" x="321.582031"/>
       <use xlink:href="#DejaVuSans-441" x="380.517578"/>
       <use xlink:href="#DejaVuSans-43a" x="435.498047"/>
       <use xlink:href="#DejaVuSans-430" x="495.898438"/>
       <use xlink:href="#DejaVuSans-44f" x="557.177734"/>
       <use xlink:href="#DejaVuSans-20" x="617.333984"/>
       <use xlink:href="#DejaVuSans-43e" x="649.121094"/>
       <use xlink:href="#DejaVuSans-431" x="710.302734"/>
       <use xlink:href="#DejaVuSans-43b" x="771.972656"/>
       <use xlink:href="#DejaVuSans-430" x="835.888672"/>
       <use xlink:href="#DejaVuSans-441" x="897.167969"/>
       <use xlink:href="#DejaVuSans-442" x="952.148438"/>
       <use xlink:href="#DejaVuSans-44c" x="1010.400391"/>
      </g>
     </g>
    </g>
    <g id="ytick_3">
     <g id="line2d_9">
      <g>
       <use xlink:href="#me02d79d209" x="130.6975" y="82.431771" style="stroke: #000000; stroke-width: 0.8"/>
      </g>
     </g>
     <g id="text_11">
      <!-- Костромская область -->
      <g transform="translate(32.9475 85.539271) scale(0.08 -0.08)">
       <defs>
        <path id="DejaVuSans-41a" d="M 628 4666 
L 1259 4666 
L 1259 2359 
L 3516 4666 
L 4325 4666 
L 2522 2822 
L 4419 0 
L 3731 0 
L 2113 2403 
L 1259 1531 
L 1259 0 
L 628 0 
L 628 4666 
z
" transform="scale(0.015625)"/>
        <path id="DejaVuSans-43c" d="M 581 3500 
L 1422 3500 
L 2416 1156 
L 3413 3500 
L 4247 3500 
L 4247 0 
L 3669 0 
L 3669 2950 
L 2703 672 
L 2128 672 
L 1159 2950 
L 1159 0 
L 581 0 
L 581 3500 
z
" transform="scale(0.015625)"/>
       </defs>
       <use xlink:href="#DejaVuSans-41a"/>
       <use xlink:href="#DejaVuSans-43e" x="70.996094"/>
       <use xlink:href="#DejaVuSans-441" x="132.177734"/>
       <use xlink:href="#DejaVuSans-442" x="187.158203"/>
       <use xlink:href="#DejaVuSans-440" x="245.410156"/>
       <use xlink:href="#DejaVuSans-43e" x="308.886719"/>
       <use xlink:href="#DejaVuSans-43c" x="370.068359"/>
       <use xlink:href="#DejaVuSans-441" x="445.507812"/>
       <use xlink:href="#DejaVuSans-43a" x="500.488281"/>
       <use xlink:href="#DejaVuSans-430" x="560.888672"/>
       <use xlink:href="#DejaVuSans-44f" x="622.167969"/>
       <use xlink:href="#DejaVuSans-20" x="682.324219"/>
       <use xlink:href="#DejaVuSans-43e" x="714.111328"/>
       <use xlink:href="#DejaVuSans-431" x="775.292969"/>
       <use xlink:href="#DejaVuSans-43b" x="836.962891"/>
       <use xlink:href="#DejaVuSans-430" x="900.878906"/>
       <use xlink:href="#DejaVuSans-441" x="962.158203"/>
       <use xlink:href="#DejaVuSans-442" x="1017.138672"/>
       <use xlink:href="#DejaVuSans-44c" x="1075.390625"/>
      </g>
     </g>
    </g>
    <g id="ytick_4">
     <g id="line2d_10">
      <g>
       <use xlink:href="#me02d79d209" x="130.6975" y="101.344729" style="stroke: #000000; stroke-width: 0.8"/>
      </g>
     </g>
     <g id="text_12">
      <!-- Ленинградская область -->
      <g transform="translate(22.27625 104.452229) scale(0.08 -0.08)">
       <defs>
        <path id="DejaVuSans-41b" d="M 263 0 
L 263 531 
Q 941 678 1134 1191 
Q 1406 1997 1406 3872 
L 1406 4666 
L 4181 4666 
L 4181 0 
L 3550 0 
L 3550 4134 
L 2034 4134 
L 2034 3559 
Q 2034 1791 1716 966 
Q 1409 175 263 0 
z
" transform="scale(0.015625)"/>
        <path id="DejaVuSans-438" d="M 3578 3500 
L 3578 0 
L 3006 0 
L 3006 2809 
L 1319 0 
L 581 0 
L 581 3500 
L 1153 3500 
L 1153 697 
L 2838 3500 
L 3578 3500 
z
" transform="scale(0.015625)"/>
       </defs>
       <use xlink:href="#DejaVuSans-41b"/>
       <use xlink:href="#DejaVuSans-435" x="75.195312"/>
       <use xlink:href="#DejaVuSans-43d" x="136.71875"/>
       <use xlink:href="#DejaVuSans-438" x="202.099609"/>
       <use xlink:href="#DejaVuSans-43d" x="267.089844"/>
       <use xlink:href="#DejaVuSans-433" x="332.470703"/>
       <use xlink:href="#DejaVuSans-440" x="385.009766"/>
       <use xlink:href="#DejaVuSans-430" x="448.486328"/>
       <use xlink:href="#DejaVuSans-434" x="509.765625"/>
       <use xlink:href="#DejaVuSans-441" x="578.90625"/>
       <use xlink:href="#DejaVuSans-43a" x="633.886719"/>
       <use xlink:href="#DejaVuSans-430" x="694.287109"/>
       <use xlink:href="#DejaVuSans-44f" x="755.566406"/>
       <use xlink:href="#DejaVuSans-20" x="815.722656"/>
       <use xlink:href="#DejaVuSans-43e" x="847.509766"/>
       <use xlink:href="#DejaVuSans-431" x="908.691406"/>
       <use xlink:href="#DejaVuSans-43b" x="970.361328"/>
       <use xlink:href="#DejaVuSans-430" x="1034.277344"/>
       <use xlink:href="#DejaVuSans-441" x="1095.556641"/>
       <use xlink:href="#DejaVuSans-442" x="1150.537109"/>
       <use xlink:href="#DejaVuSans-44c" x="1208.789062"/>
      </g>
     </g>
    </g>
    <g id="ytick_5">
     <g id="line2d_11">
      <g>
       <use xlink:href="#me02d79d209" x="130.6975" y="120.257688" style="stroke: #000000; stroke-width: 0.8"/>
      </g>
     </g>
     <g id="text_13">
      <!-- Липецкая область -->
      <g transform="translate(46.17625 123.297063) scale(0.08 -0.08)">
       <defs>
        <path id="DejaVuSans-43f" d="M 3603 3500 
L 3603 0 
L 3025 0 
L 3025 3041 
L 1159 3041 
L 1159 0 
L 581 0 
L 581 3500 
L 3603 3500 
z
" transform="scale(0.015625)"/>
        <path id="DejaVuSans-446" d="M 3603 0 
L 581 0 
L 581 3500 
L 1159 3500 
L 1159 459 
L 3025 459 
L 3025 3500 
L 3603 3500 
L 3603 459 
L 4063 459 
L 4063 -884 
L 3603 -884 
L 3603 0 
z
" transform="scale(0.015625)"/>
       </defs>
       <use xlink:href="#DejaVuSans-41b"/>
       <use xlink:href="#DejaVuSans-438" x="75.195312"/>
       <use xlink:href="#DejaVuSans-43f" x="140.185547"/>
       <use xlink:href="#DejaVuSans-435" x="205.566406"/>
       <use xlink:href="#DejaVuSans-446" x="267.089844"/>
       <use xlink:href="#DejaVuSans-43a" x="335.15625"/>
       <use xlink:href="#DejaVuSans-430" x="395.556641"/>
       <use xlink:href="#DejaVuSans-44f" x="456.835938"/>
       <use xlink:href="#DejaVuSans-20" x="516.992188"/>
       <use xlink:href="#DejaVuSans-43e" x="548.779297"/>
       <use xlink:href="#DejaVuSans-431" x="609.960938"/>
       <use xlink:href="#DejaVuSans-43b" x="671.630859"/>
       <use xlink:href="#DejaVuSans-430" x="735.546875"/>
       <use xlink:href="#DejaVuSans-441" x="796.826172"/>
       <use xlink:href="#DejaVuSans-442" x="851.806641"/>
       <use xlink:href="#DejaVuSans-44c" x="910.058594"/>
      </g>
     </g>
    </g>
    <g id="ytick_6">
     <g id="line2d_12">
      <g>
       <use xlink:href="#me02d79d209" x="130.6975" y="139.170646" style="stroke: #000000; stroke-width: 0.8"/>
      </g>
     </g>
     <g id="text_14">
      <!-- Москва -->
      <g transform="translate(93.05125 142.210021) scale(0.08 -0.08)">
       <defs>
        <path id="DejaVuSans-41c" d="M 628 4666 
L 1569 4666 
L 2759 1491 
L 3956 4666 
L 4897 4666 
L 4897 0 
L 4281 0 
L 4281 4097 
L 3078 897 
L 2444 897 
L 1241 4097 
L 1241 0 
L 628 0 
L 628 4666 
z
" transform="scale(0.015625)"/>
       </defs>
       <use xlink:href="#DejaVuSans-41c"/>
       <use xlink:href="#DejaVuSans-43e" x="86.279297"/>
       <use xlink:href="#DejaVuSans-441" x="147.460938"/>
       <use xlink:href="#DejaVuSans-43a" x="202.441406"/>
       <use xlink:href="#DejaVuSans-432" x="262.841797"/>
       <use xlink:href="#DejaVuSans-430" x="321.777344"/>
      </g>
     </g>
    </g>
    <g id="ytick_7">
     <g id="line2d_13">
      <g>
       <use xlink:href="#me02d79d209" x="130.6975" y="158.083604" style="stroke: #000000; stroke-width: 0.8"/>
      </g>
     </g>
     <g id="text_15">
      <!-- Московская область -->
      <g transform="translate(37.95125 161.122979) scale(0.08 -0.08)">
       <use xlink:href="#DejaVuSans-41c"/>
       <use xlink:href="#DejaVuSans-43e" x="86.279297"/>
       <use xlink:href="#DejaVuSans-441" x="147.460938"/>
       <use xlink:href="#DejaVuSans-43a" x="202.441406"/>
       <use xlink:href="#DejaVuSans-43e" x="262.841797"/>
       <use xlink:href="#DejaVuSans-432" x="324.023438"/>
       <use xlink:href="#DejaVuSans-441" x="382.958984"/>
       <use xlink:href="#DejaVuSans-43a" x="437.939453"/>
       <use xlink:href="#DejaVuSans-430" x="498.339844"/>
       <use xlink:href="#DejaVuSans-44f" x="559.619141"/>
       <use xlink:href="#DejaVuSans-20" x="619.775391"/>
       <use xlink:href="#DejaVuSans-43e" x="651.5625"/>
       <use xlink:href="#DejaVuSans-431" x="712.744141"/>
       <use xlink:href="#DejaVuSans-43b" x="774.414062"/>
       <use xlink:href="#DejaVuSans-430" x="838.330078"/>
       <use xlink:href="#DejaVuSans-441" x="899.609375"/>
       <use xlink:href="#DejaVuSans-442" x="954.589844"/>
       <use xlink:href="#DejaVuSans-44c" x="1012.841797"/>
      </g>
     </g>
    </g>
    <g id="ytick_8">
     <g id="line2d_14">
      <g>
       <use xlink:href="#me02d79d209" x="130.6975" y="176.996563" style="stroke: #000000; stroke-width: 0.8"/>
      </g>
     </g>
     <g id="text_16">
      <!-- Республика Адыгея -->
      <g transform="translate(40.805 180.104063) scale(0.08 -0.08)">
       <defs>
        <path id="DejaVuSans-420" d="M 1259 4147 
L 1259 2394 
L 2053 2394 
Q 2494 2394 2734 2622 
Q 2975 2850 2975 3272 
Q 2975 3691 2734 3919 
Q 2494 4147 2053 4147 
L 1259 4147 
z
M 628 4666 
L 2053 4666 
Q 2838 4666 3239 4311 
Q 3641 3956 3641 3272 
Q 3641 2581 3239 2228 
Q 2838 1875 2053 1875 
L 1259 1875 
L 1259 0 
L 628 0 
L 628 4666 
z
" transform="scale(0.015625)"/>
        <path id="DejaVuSans-443" d="M 2059 -325 
Q 1816 -950 1584 -1140 
Q 1353 -1331 966 -1331 
L 506 -1331 
L 506 -850 
L 844 -850 
Q 1081 -850 1212 -737 
Q 1344 -625 1503 -206 
L 1606 56 
L 191 3500 
L 800 3500 
L 1894 763 
L 2988 3500 
L 3597 3500 
L 2059 -325 
z
" transform="scale(0.015625)"/>
        <path id="DejaVuSans-410" d="M 2188 4044 
L 1331 1722 
L 3047 1722 
L 2188 4044 
z
M 1831 4666 
L 2547 4666 
L 4325 0 
L 3669 0 
L 3244 1197 
L 1141 1197 
L 716 0 
L 50 0 
L 1831 4666 
z
" transform="scale(0.015625)"/>
        <path id="DejaVuSans-44b" d="M 3909 3500 
L 4484 3500 
L 4484 0 
L 3909 0 
L 3909 3500 
z
M 4197 3584 
L 4197 3584 
z
M 2781 1038 
Q 2781 1319 2576 1466 
Q 2372 1613 1978 1613 
L 1159 1613 
L 1159 459 
L 1978 459 
Q 2372 459 2576 607 
Q 2781 756 2781 1038 
z
M 581 3500 
L 1159 3500 
L 1159 2072 
L 2003 2072 
Q 2672 2072 3033 1817 
Q 3394 1563 3394 1038 
Q 3394 513 3033 256 
Q 2672 0 2003 0 
L 581 0 
L 581 3500 
z
" transform="scale(0.015625)"/>
       </defs>
       <use xlink:href="#DejaVuSans-420"/>
       <use xlink:href="#DejaVuSans-435" x="60.302734"/>
       <use xlink:href="#DejaVuSans-441" x="121.826172"/>
       <use xlink:href="#DejaVuSans-43f" x="176.806641"/>
       <use xlink:href="#DejaVuSans-443" x="242.1875"/>
       <use xlink:href="#DejaVuSans-431" x="301.367188"/>
       <use xlink:href="#DejaVuSans-43b" x="363.037109"/>
       <use xlink:href="#DejaVuSans-438" x="426.953125"/>
       <use xlink:href="#DejaVuSans-43a" x="491.943359"/>
       <use xlink:href="#DejaVuSans-430" x="552.34375"/>
       <use xlink:href="#DejaVuSans-20" x="613.623047"/>
       <use xlink:href="#DejaVuSans-410" x="645.410156"/>
       <use xlink:href="#DejaVuSans-434" x="713.818359"/>
       <use xlink:href="#DejaVuSans-44b" x="782.958984"/>
       <use xlink:href="#DejaVuSans-433" x="861.914062"/>
       <use xlink:href="#DejaVuSans-435" x="914.453125"/>
       <use xlink:href="#DejaVuSans-44f" x="975.976562"/>
      </g>
     </g>
    </g>
    <g id="ytick_9">
     <g id="line2d_15">
      <g>
       <use xlink:href="#me02d79d209" x="130.6975" y="195.909521" style="stroke: #000000; stroke-width: 0.8"/>
      </g>
     </g>
     <g id="text_17">
      <!-- Республика Башкортостан -->
      <g transform="translate(10.8 199.017021) scale(0.08 -0.08)">
       <defs>
        <path id="DejaVuSans-448" d="M 3216 459 
L 4697 459 
L 4697 3500 
L 5275 3500 
L 5275 0 
L 581 0 
L 581 3500 
L 1159 3500 
L 1159 459 
L 2638 459 
L 2638 3500 
L 3216 3500 
L 3216 459 
z
" transform="scale(0.015625)"/>
       </defs>
       <use xlink:href="#DejaVuSans-420"/>
       <use xlink:href="#DejaVuSans-435" x="60.302734"/>
       <use xlink:href="#DejaVuSans-441" x="121.826172"/>
       <use xlink:href="#DejaVuSans-43f" x="176.806641"/>
       <use xlink:href="#DejaVuSans-443" x="242.1875"/>
       <use xlink:href="#DejaVuSans-431" x="301.367188"/>
       <use xlink:href="#DejaVuSans-43b" x="363.037109"/>
       <use xlink:href="#DejaVuSans-438" x="426.953125"/>
       <use xlink:href="#DejaVuSans-43a" x="491.943359"/>
       <use xlink:href="#DejaVuSans-430" x="552.34375"/>
       <use xlink:href="#DejaVuSans-20" x="613.623047"/>
       <use xlink:href="#DejaVuSans-411" x="645.410156"/>
       <use xlink:href="#DejaVuSans-430" x="714.013672"/>
       <use xlink:href="#DejaVuSans-448" x="775.292969"/>
       <use xlink:href="#DejaVuSans-43a" x="866.796875"/>
       <use xlink:href="#DejaVuSans-43e" x="927.197266"/>
       <use xlink:href="#DejaVuSans-440" x="988.378906"/>
       <use xlink:href="#DejaVuSans-442" x="1051.855469"/>
       <use xlink:href="#DejaVuSans-43e" x="1110.107422"/>
       <use xlink:href="#DejaVuSans-441" x="1171.289062"/>
       <use xlink:href="#DejaVuSans-442" x="1226.269531"/>
       <use xlink:href="#DejaVuSans-430" x="1284.521484"/>
       <use xlink:href="#DejaVuSans-43d" x="1345.800781"/>
      </g>
     </g>
    </g>
    <g id="ytick_10">
     <g id="line2d_16">
      <g>
       <use xlink:href="#me02d79d209" x="130.6975" y="214.822479" style="stroke: #000000; stroke-width: 0.8"/>
      </g>
     </g>
     <g id="text_18">
      <!-- Республика Калмыкия -->
      <g transform="translate(29.1725 217.929979) scale(0.08 -0.08)">
       <use xlink:href="#DejaVuSans-420"/>
       <use xlink:href="#DejaVuSans-435" x="60.302734"/>
       <use xlink:href="#DejaVuSans-441" x="121.826172"/>
       <use xlink:href="#DejaVuSans-43f" x="176.806641"/>
       <use xlink:href="#DejaVuSans-443" x="242.1875"/>
       <use xlink:href="#DejaVuSans-431" x="301.367188"/>
       <use xlink:href="#DejaVuSans-43b" x="363.037109"/>
       <use xlink:href="#DejaVuSans-438" x="426.953125"/>
       <use xlink:href="#DejaVuSans-43a" x="491.943359"/>
       <use xlink:href="#DejaVuSans-430" x="552.34375"/>
       <use xlink:href="#DejaVuSans-20" x="613.623047"/>
       <use xlink:href="#DejaVuSans-41a" x="645.410156"/>
       <use xlink:href="#DejaVuSans-430" x="716.40625"/>
       <use xlink:href="#DejaVuSans-43b" x="777.685547"/>
       <use xlink:href="#DejaVuSans-43c" x="841.601562"/>
       <use xlink:href="#DejaVuSans-44b" x="917.041016"/>
       <use xlink:href="#DejaVuSans-43a" x="995.996094"/>
       <use xlink:href="#DejaVuSans-438" x="1056.396484"/>
       <use xlink:href="#DejaVuSans-44f" x="1121.386719"/>
      </g>
     </g>
    </g>
    <g id="ytick_11">
     <g id="line2d_17">
      <g>
       <use xlink:href="#me02d79d209" x="130.6975" y="233.735438" style="stroke: #000000; stroke-width: 0.8"/>
      </g>
     </g>
     <g id="text_19">
      <!-- Республика Крым -->
      <g transform="translate(48.95375 236.842938) scale(0.08 -0.08)">
       <use xlink:href="#DejaVuSans-420"/>
       <use xlink:href="#DejaVuSans-435" x="60.302734"/>
       <use xlink:href="#DejaVuSans-441" x="121.826172"/>
       <use xlink:href="#DejaVuSans-43f" x="176.806641"/>
       <use xlink:href="#DejaVuSans-443" x="242.1875"/>
       <use xlink:href="#DejaVuSans-431" x="301.367188"/>
       <use xlink:href="#DejaVuSans-43b" x="363.037109"/>
       <use xlink:href="#DejaVuSans-438" x="426.953125"/>
       <use xlink:href="#DejaVuSans-43a" x="491.943359"/>
       <use xlink:href="#DejaVuSans-430" x="552.34375"/>
       <use xlink:href="#DejaVuSans-20" x="613.623047"/>
       <use xlink:href="#DejaVuSans-41a" x="645.410156"/>
       <use xlink:href="#DejaVuSans-440" x="716.40625"/>
       <use xlink:href="#DejaVuSans-44b" x="779.882812"/>
       <use xlink:href="#DejaVuSans-43c" x="858.837891"/>
      </g>
     </g>
    </g>
    <g id="ytick_12">
     <g id="line2d_18">
      <g>
       <use xlink:href="#me02d79d209" x="130.6975" y="252.648396" style="stroke: #000000; stroke-width: 0.8"/>
      </g>
     </g>
     <g id="text_20">
      <!-- Санкт-Петербург -->
      <g transform="translate(51.04875 255.755896) scale(0.08 -0.08)">
       <defs>
        <path id="DejaVuSans-421" d="M 4122 4306 
L 4122 3641 
Q 3803 3938 3442 4084 
Q 3081 4231 2675 4231 
Q 1875 4231 1450 3742 
Q 1025 3253 1025 2328 
Q 1025 1406 1450 917 
Q 1875 428 2675 428 
Q 3081 428 3442 575 
Q 3803 722 4122 1019 
L 4122 359 
Q 3791 134 3420 21 
Q 3050 -91 2638 -91 
Q 1578 -91 968 557 
Q 359 1206 359 2328 
Q 359 3453 968 4101 
Q 1578 4750 2638 4750 
Q 3056 4750 3426 4639 
Q 3797 4528 4122 4306 
z
" transform="scale(0.015625)"/>
        <path id="DejaVuSans-2d" d="M 313 2009 
L 1997 2009 
L 1997 1497 
L 313 1497 
L 313 2009 
z
" transform="scale(0.015625)"/>
        <path id="DejaVuSans-41f" d="M 4184 4666 
L 4184 0 
L 3553 0 
L 3553 4134 
L 1259 4134 
L 1259 0 
L 628 0 
L 628 4666 
L 4184 4666 
z
" transform="scale(0.015625)"/>
       </defs>
       <use xlink:href="#DejaVuSans-421"/>
       <use xlink:href="#DejaVuSans-430" x="69.824219"/>
       <use xlink:href="#DejaVuSans-43d" x="131.103516"/>
       <use xlink:href="#DejaVuSans-43a" x="196.484375"/>
       <use xlink:href="#DejaVuSans-442" x="256.884766"/>
       <use xlink:href="#DejaVuSans-2d" x="315.136719"/>
       <use xlink:href="#DejaVuSans-41f" x="351.220703"/>
       <use xlink:href="#DejaVuSans-435" x="426.416016"/>
       <use xlink:href="#DejaVuSans-442" x="487.939453"/>
       <use xlink:href="#DejaVuSans-435" x="546.191406"/>
       <use xlink:href="#DejaVuSans-440" x="607.714844"/>
       <use xlink:href="#DejaVuSans-431" x="671.191406"/>
       <use xlink:href="#DejaVuSans-443" x="732.861328"/>
       <use xlink:href="#DejaVuSans-440" x="792.041016"/>
       <use xlink:href="#DejaVuSans-433" x="855.517578"/>
      </g>
     </g>
    </g>
    <g id="ytick_13">
     <g id="line2d_19">
      <g>
       <use xlink:href="#me02d79d209" x="130.6975" y="271.561354" style="stroke: #000000; stroke-width: 0.8"/>
      </g>
     </g>
     <g id="text_21">
      <!-- Свердловская область -->
      <g transform="translate(28.0325 274.668854) scale(0.08 -0.08)">
       <use xlink:href="#DejaVuSans-421"/>
       <use xlink:href="#DejaVuSans-432" x="69.824219"/>
       <use xlink:href="#DejaVuSans-435" x="128.759766"/>
       <use xlink:href="#DejaVuSans-440" x="190.283203"/>
       <use xlink:href="#DejaVuSans-434" x="253.759766"/>
       <use xlink:href="#DejaVuSans-43b" x="322.900391"/>
       <use xlink:href="#DejaVuSans-43e" x="386.816406"/>
       <use xlink:href="#DejaVuSans-432" x="447.998047"/>
       <use xlink:href="#DejaVuSans-441" x="506.933594"/>
       <use xlink:href="#DejaVuSans-43a" x="561.914062"/>
       <use xlink:href="#DejaVuSans-430" x="622.314453"/>
       <use xlink:href="#DejaVuSans-44f" x="683.59375"/>
       <use xlink:href="#DejaVuSans-20" x="743.75"/>
       <use xlink:href="#DejaVuSans-43e" x="775.537109"/>
       <use xlink:href="#DejaVuSans-431" x="836.71875"/>
       <use xlink:href="#DejaVuSans-43b" x="898.388672"/>
       <use xlink:href="#DejaVuSans-430" x="962.304688"/>
       <use xlink:href="#DejaVuSans-441" x="1023.583984"/>
       <use xlink:href="#DejaVuSans-442" x="1078.564453"/>
       <use xlink:href="#DejaVuSans-44c" x="1136.816406"/>
      </g>
     </g>
    </g>
    <g id="ytick_14">
     <g id="line2d_20">
      <g>
       <use xlink:href="#me02d79d209" x="130.6975" y="290.474312" style="stroke: #000000; stroke-width: 0.8"/>
      </g>
     </g>
     <g id="text_22">
      <!-- Севастополь -->
      <g transform="translate(69.66375 293.513688) scale(0.08 -0.08)">
       <use xlink:href="#DejaVuSans-421"/>
       <use xlink:href="#DejaVuSans-435" x="69.824219"/>
       <use xlink:href="#DejaVuSans-432" x="131.347656"/>
       <use xlink:href="#DejaVuSans-430" x="190.283203"/>
       <use xlink:href="#DejaVuSans-441" x="251.5625"/>
       <use xlink:href="#DejaVuSans-442" x="306.542969"/>
       <use xlink:href="#DejaVuSans-43e" x="364.794922"/>
       <use xlink:href="#DejaVuSans-43f" x="425.976562"/>
       <use xlink:href="#DejaVuSans-43e" x="491.357422"/>
       <use xlink:href="#DejaVuSans-43b" x="552.539062"/>
       <use xlink:href="#DejaVuSans-44c" x="616.455078"/>
      </g>
     </g>
    </g>
    <g id="ytick_15">
     <g id="line2d_21">
      <g>
       <use xlink:href="#me02d79d209" x="130.6975" y="309.387271" style="stroke: #000000; stroke-width: 0.8"/>
      </g>
     </g>
     <g id="text_23">
      <!-- Тамбовская область -->
      <g transform="translate(38.2225 312.426646) scale(0.08 -0.08)">
       <defs>
        <path id="DejaVuSans-422" d="M -19 4666 
L 3928 4666 
L 3928 4134 
L 2272 4134 
L 2272 0 
L 1638 0 
L 1638 4134 
L -19 4134 
L -19 4666 
z
" transform="scale(0.015625)"/>
       </defs>
       <use xlink:href="#DejaVuSans-422"/>
       <use xlink:href="#DejaVuSans-430" x="61.083984"/>
       <use xlink:href="#DejaVuSans-43c" x="122.363281"/>
       <use xlink:href="#DejaVuSans-431" x="197.802734"/>
       <use xlink:href="#DejaVuSans-43e" x="259.472656"/>
       <use xlink:href="#DejaVuSans-432" x="320.654297"/>
       <use xlink:href="#DejaVuSans-441" x="379.589844"/>
       <use xlink:href="#DejaVuSans-43a" x="434.570312"/>
       <use xlink:href="#DejaVuSans-430" x="494.970703"/>
       <use xlink:href="#DejaVuSans-44f" x="556.25"/>
       <use xlink:href="#DejaVuSans-20" x="616.40625"/>
       <use xlink:href="#DejaVuSans-43e" x="648.193359"/>
       <use xlink:href="#DejaVuSans-431" x="709.375"/>
       <use xlink:href="#DejaVuSans-43b" x="771.044922"/>
       <use xlink:href="#DejaVuSans-430" x="834.960938"/>
       <use xlink:href="#DejaVuSans-441" x="896.240234"/>
       <use xlink:href="#DejaVuSans-442" x="951.220703"/>
       <use xlink:href="#DejaVuSans-44c" x="1009.472656"/>
      </g>
     </g>
    </g>
   </g>
   <g id="line2d_22">
    <path clip-path="url(#p8c5db4ea69)" style="fill: none; stroke: #424242; stroke-width: 2.7; stroke-linecap: square"/>
   </g>
   <g id="line2d_23">
    <path clip-path="url(#p8c5db4ea69)" style="fill: none; stroke: #424242; stroke-width: 2.7; stroke-linecap: square"/>
   </g>
   <g id="line2d_24">
    <path clip-path="url(#p8c5db4ea69)" style="fill: none; stroke: #424242; stroke-width: 2.7; stroke-linecap: square"/>
   </g>
   <g id="line2d_25">
    <path clip-path="url(#p8c5db4ea69)" style="fill: none; stroke: #424242; stroke-width: 2.7; stroke-linecap: square"/>
   </g>
   <g id="line2d_26">
    <path clip-path="url(#p8c5db4ea69)" style="fill: none; stroke: #424242; stroke-width: 2.7; stroke-linecap: square"/>
   </g>
   <g id="line2d_27">
    <path clip-path="url(#p8c5db4ea69)" style="fill: none; stroke: #424242; stroke-width: 2.7; stroke-linecap: square"/>
   </g>
   <g id="line2d_28">
    <path clip-path="url(#p8c5db4ea69)" style="fill: none; stroke: #424242; stroke-width: 2.7; stroke-linecap: square"/>
   </g>
   <g id="line2d_29">
    <path clip-path="url(#p8c5db4ea69)" style="fill: none; stroke: #424242; stroke-width: 2.7; stroke-linecap: square"/>
   </g>
   <g id="line2d_30">
    <path clip-path="url(#p8c5db4ea69)" style="fill: none; stroke: #424242; stroke-width: 2.7; stroke-linecap: square"/>
   </g>
   <g id="line2d_31">
    <path clip-path="url(#p8c5db4ea69)" style="fill: none; stroke: #424242; stroke-width: 2.7; stroke-linecap: square"/>
   </g>
   <g id="line2d_32">
    <path clip-path="url(#p8c5db4ea69)" style="fill: none; stroke: #424242; stroke-width: 2.7; stroke-linecap: square"/>
   </g>
   <g id="line2d_33">
    <path clip-path="url(#p8c5db4ea69)" style="fill: none; stroke: #424242; stroke-width: 2.7; stroke-linecap: square"/>
   </g>
   <g id="line2d_34">
    <path clip-path="url(#p8c5db4ea69)" style="fill: none; stroke: #424242; stroke-width: 2.7; stroke-linecap: square"/>
   </g>
   <g id="line2d_35">
    <path clip-path="url(#p8c5db4ea69)" style="fill: none; stroke: #424242; stroke-width: 2.7; stroke-linecap: square"/>
   </g>
   <g id="line2d_36">
    <path clip-path="url(#p8c5db4ea69)" style="fill: none; stroke: #424242; stroke-width: 2.7; stroke-linecap: square"/>
   </g>
   <g id="patch_18">
    <path d="M 130.6975 318.84375 
L 130.6975 35.149375 
" style="fill: none; stroke: #000000; stroke-width: 0.8; stroke-linejoin: miter; stroke-linecap: square"/>
   </g>
   <g id="patch_19">
    <path d="M 853.2 318.84375 
L 853.2 35.149375 
" style="fill: none; stroke: #000000; stroke-width: 0.8; stroke-linejoin: miter; stroke-linecap: square"/>
   </g>
   <g id="patch_20">
    <path d="M 130.6975 318.84375 
L 853.2 318.84375 
" style="fill: none; stroke: #000000; stroke-width: 0.8; stroke-linejoin: miter; stroke-linecap: square"/>
   </g>
   <g id="patch_21">
    <path d="M 130.6975 35.149375 
L 853.2 35.149375 
" style="fill: none; stroke: #000000; stroke-width: 0.8; stroke-linejoin: miter; stroke-linecap: square"/>
   </g>
  </g>
  <g id="text_24">
   <!-- Значение признака *mining* в кластере №2 в разрезе регионов -->
   <g transform="translate(195.829844 17.837812) scale(0.14 -0.14)">
    <defs>
     <path id="DejaVuSans-417" d="M 1828 4750 
Q 2597 4750 3084 4423 
Q 3572 4097 3572 3541 
Q 3572 3153 3350 2886 
Q 3128 2619 2719 2516 
Q 3172 2419 3426 2112 
Q 3681 1806 3681 1356 
Q 3681 638 3126 273 
Q 2572 -91 1828 -91 
Q 1447 -91 1003 12 
Q 559 116 422 203 
L 422 853 
Q 900 575 1164 508 
Q 1428 441 1816 441 
Q 2403 441 2728 666 
Q 3053 891 3053 1356 
Q 3053 1769 2764 2001 
Q 2475 2234 1866 2234 
L 1228 2234 
L 1228 2753 
L 1891 2753 
Q 2450 2753 2697 2939 
Q 2944 3125 2944 3475 
Q 2944 3834 2689 4026 
Q 2434 4219 1816 4219 
Q 1397 4219 1253 4181 
Q 1109 4144 469 3903 
L 469 4519 
Q 822 4644 1190 4697 
Q 1559 4750 1828 4750 
z
" transform="scale(0.015625)"/>
     <path id="DejaVuSans-447" d="M 2625 0 
L 2625 1472 
L 1553 1472 
Q 1075 1472 756 1769 
Q 469 2038 469 2613 
L 469 3500 
L 1044 3500 
L 1044 2666 
Q 1044 2300 1206 2116 
Q 1372 1931 1697 1931 
L 2625 1931 
L 2625 3500 
L 3200 3500 
L 3200 0 
L 2625 0 
z
" transform="scale(0.015625)"/>
     <path id="DejaVuSans-437" d="M 2206 1888 
Q 2594 1813 2809 1584 
Q 3025 1356 3025 1019 
Q 3025 478 2622 193 
Q 2219 -91 1475 -91 
Q 1225 -91 961 -47 
Q 697 -3 416 84 
L 416 619 
Q 638 503 903 445 
Q 1169 388 1459 388 
Q 1931 388 2195 563 
Q 2459 738 2459 1019 
Q 2459 1294 2225 1461 
Q 1991 1628 1563 1628 
L 1100 1628 
L 1100 2103 
L 1584 2103 
Q 1947 2103 2158 2242 
Q 2369 2381 2369 2600 
Q 2369 2800 2151 2944 
Q 1934 3088 1563 3088 
Q 1341 3088 1089 3047 
Q 838 3006 534 2916 
L 534 3438 
Q 841 3513 1106 3550 
Q 1372 3588 1609 3588 
Q 2222 3588 2576 3342 
Q 2931 3097 2931 2656 
Q 2931 2366 2743 2164 
Q 2556 1963 2206 1888 
z
" transform="scale(0.015625)"/>
     <path id="DejaVuSans-2a" d="M 3009 3897 
L 1888 3291 
L 3009 2681 
L 2828 2375 
L 1778 3009 
L 1778 1831 
L 1422 1831 
L 1422 3009 
L 372 2375 
L 191 2681 
L 1313 3291 
L 191 3897 
L 372 4206 
L 1422 3572 
L 1422 4750 
L 1778 4750 
L 1778 3572 
L 2828 4206 
L 3009 3897 
z
" transform="scale(0.015625)"/>
     <path id="DejaVuSans-2116" d="M 169 0 
L 169 531 
Q 628 531 628 866 
L 628 4666 
L 1478 4666 
L 3547 763 
L 3547 3800 
Q 3547 4200 3792 4433 
Q 4038 4666 4619 4666 
L 4619 4134 
Q 4159 4134 4159 3800 
L 4159 0 
L 3309 0 
L 1241 3903 
L 1241 866 
Q 1241 466 995 233 
Q 750 0 169 0 
z
M 4659 1944 
Q 4659 2375 4884 2673 
Q 5109 2972 5431 2972 
Q 5753 2972 5978 2673 
Q 6203 2375 6203 1944 
Q 6203 1513 5978 1214 
Q 5753 916 5431 916 
Q 5109 916 4884 1214 
Q 4659 1513 4659 1944 
z
M 5097 1944 
Q 5097 1700 5186 1539 
Q 5275 1378 5431 1378 
Q 5588 1378 5677 1539 
Q 5766 1700 5766 1944 
Q 5766 2188 5677 2348 
Q 5588 2509 5431 2509 
Q 5275 2509 5186 2348 
Q 5097 2188 5097 1944 
z
M 4659 0 
L 4659 384 
L 6203 384 
L 6203 0 
L 4659 0 
z
" transform="scale(0.015625)"/>
    </defs>
    <use xlink:href="#DejaVuSans-417"/>
    <use xlink:href="#DejaVuSans-43d" x="64.111328"/>
    <use xlink:href="#DejaVuSans-430" x="129.492188"/>
    <use xlink:href="#DejaVuSans-447" x="190.771484"/>
    <use xlink:href="#DejaVuSans-435" x="249.853516"/>
    <use xlink:href="#DejaVuSans-43d" x="311.376953"/>
    <use xlink:href="#DejaVuSans-438" x="376.757812"/>
    <use xlink:href="#DejaVuSans-435" x="441.748047"/>
    <use xlink:href="#DejaVuSans-20" x="503.271484"/>
    <use xlink:href="#DejaVuSans-43f" x="535.058594"/>
    <use xlink:href="#DejaVuSans-440" x="600.439453"/>
    <use xlink:href="#DejaVuSans-438" x="663.916016"/>
    <use xlink:href="#DejaVuSans-437" x="728.90625"/>
    <use xlink:href="#DejaVuSans-43d" x="782.080078"/>
    <use xlink:href="#DejaVuSans-430" x="847.460938"/>
    <use xlink:href="#DejaVuSans-43a" x="908.740234"/>
    <use xlink:href="#DejaVuSans-430" x="969.140625"/>
    <use xlink:href="#DejaVuSans-20" x="1030.419922"/>
    <use xlink:href="#DejaVuSans-2a" x="1062.207031"/>
    <use xlink:href="#DejaVuSans-6d" x="1112.207031"/>
    <use xlink:href="#DejaVuSans-69" x="1209.619141"/>
    <use xlink:href="#DejaVuSans-6e" x="1237.402344"/>
    <use xlink:href="#DejaVuSans-69" x="1300.78125"/>
    <use xlink:href="#DejaVuSans-6e" x="1328.564453"/>
    <use xlink:href="#DejaVuSans-67" x="1391.943359"/>
    <use xlink:href="#DejaVuSans-2a" x="1455.419922"/>
    <use xlink:href="#DejaVuSans-20" x="1505.419922"/>
    <use xlink:href="#DejaVuSans-432" x="1537.207031"/>
    <use xlink:href="#DejaVuSans-20" x="1596.142578"/>
    <use xlink:href="#DejaVuSans-43a" x="1627.929688"/>
    <use xlink:href="#DejaVuSans-43b" x="1688.330078"/>
    <use xlink:href="#DejaVuSans-430" x="1752.246094"/>
    <use xlink:href="#DejaVuSans-441" x="1813.525391"/>
    <use xlink:href="#DejaVuSans-442" x="1868.505859"/>
    <use xlink:href="#DejaVuSans-435" x="1926.757812"/>
    <use xlink:href="#DejaVuSans-440" x="1988.28125"/>
    <use xlink:href="#DejaVuSans-435" x="2051.757812"/>
    <use xlink:href="#DejaVuSans-20" x="2113.28125"/>
    <use xlink:href="#DejaVuSans-2116" x="2145.068359"/>
    <use xlink:href="#DejaVuSans-32" x="2249.072266"/>
    <use xlink:href="#DejaVuSans-20" x="2312.695312"/>
    <use xlink:href="#DejaVuSans-432" x="2344.482422"/>
    <use xlink:href="#DejaVuSans-20" x="2403.417969"/>
    <use xlink:href="#DejaVuSans-440" x="2435.205078"/>
    <use xlink:href="#DejaVuSans-430" x="2498.681641"/>
    <use xlink:href="#DejaVuSans-437" x="2559.960938"/>
    <use xlink:href="#DejaVuSans-440" x="2613.134766"/>
    <use xlink:href="#DejaVuSans-435" x="2676.611328"/>
    <use xlink:href="#DejaVuSans-437" x="2738.134766"/>
    <use xlink:href="#DejaVuSans-435" x="2791.308594"/>
    <use xlink:href="#DejaVuSans-20" x="2852.832031"/>
    <use xlink:href="#DejaVuSans-440" x="2884.619141"/>
    <use xlink:href="#DejaVuSans-435" x="2948.095703"/>
    <use xlink:href="#DejaVuSans-433" x="3009.619141"/>
    <use xlink:href="#DejaVuSans-438" x="3062.158203"/>
    <use xlink:href="#DejaVuSans-43e" x="3127.148438"/>
    <use xlink:href="#DejaVuSans-43d" x="3188.330078"/>
    <use xlink:href="#DejaVuSans-43e" x="3253.710938"/>
    <use xlink:href="#DejaVuSans-432" x="3314.892578"/>
   </g>
  </g>
 </g>
 <defs>
  <clipPath id="p8c5db4ea69">
   <rect x="130.6975" y="35.149375" width="722.5025" height="283.694375"/>
  </clipPath>
 </defs>
</svg>
